<?xml version="1.0" encoding="UTF-8" standalone="no"?>
<svg
   xmlns:dc="http://purl.org/dc/elements/1.1/"
   xmlns:cc="http://creativecommons.org/ns#"
   xmlns:rdf="http://www.w3.org/1999/02/22-rdf-syntax-ns#"
   xmlns:svg="http://www.w3.org/2000/svg"
   xmlns="http://www.w3.org/2000/svg"
   xmlns:sodipodi="http://sodipodi.sourceforge.net/DTD/sodipodi-0.dtd"
   xmlns:inkscape="http://www.inkscape.org/namespaces/inkscape"
   width="210mm"
   height="297mm"
   viewBox="0 0 210 297"
   version="1.1"
   id="svg8"
   sodipodi:docname="deepwader_guard.svg"
   inkscape:version="1.0.1 (3bc2e813f5, 2020-09-07)">
  <defs
     id="defs2" />
  <sodipodi:namedview
     id="base"
     pagecolor="#ffffff"
     bordercolor="#666666"
     borderopacity="1.0"
     inkscape:pageopacity="0.0"
     inkscape:pageshadow="2"
     inkscape:zoom="0.45254834"
     inkscape:cx="362.70655"
     inkscape:cy="785.21443"
     inkscape:document-units="mm"
     inkscape:current-layer="layer1"
     showgrid="false"
     inkscape:window-width="1920"
     inkscape:window-height="1001"
     inkscape:window-x="-9"
     inkscape:window-y="-9"
     inkscape:window-maximized="1"
     inkscape:document-rotation="0" />
  <metadata
     id="metadata5">
    <rdf:RDF>
      <cc:Work
         rdf:about="">
        <dc:format>image/svg+xml</dc:format>
        <dc:type
           rdf:resource="http://purl.org/dc/dcmitype/StillImage" />
        <dc:title />
      </cc:Work>
    </rdf:RDF>
  </metadata>
  <g
     inkscape:label="Layer 1"
     inkscape:groupmode="layer"
     id="layer1">
    <path
       style="fill:#8c6ea9;stroke-width:0.341245"
       d="m 98.774754,163.0768 c -7.70621,-0.78033 -12.786806,-2.41809 -18.760906,-6.04761 -7.689,-4.67138 -12.8142,-9.8174 -16.5245,-16.5917 -2.1527,-3.93031 -2.9918,-6.84893 -3.1843,-11.07522 -0.2274,-4.99349 0.5246,-7.98824 3.5379,-14.08927 l 2.2483,-4.55202 -0.6352,-1.41199 c -0.3494,-0.77659 -1.4913,-2.33685 -2.5375,-3.46724 -2.6315,-2.84325 -3.9344,-4.85849 -5.4817,-8.478702 -1.1379,-2.66234 -1.3769,-3.66965 -1.6708,-7.04336 -0.6811,-7.81817 -1.8102,-13.04348 -3.0635,-14.17775 -0.6579,-0.59534 -0.7551,-0.59806 -1.8981,-0.053 -0.6625,0.31596 -1.9856,1.30255 -2.9402,2.19242 -1.4846,1.38407 -1.6988,1.49464 -1.4813,0.76485 0.5126,-1.71995 2.3345,-4.12819 3.7512,-4.95842 1.019,-0.59716 1.9437,-0.84275 3.1733,-0.84275 1.48,0 1.8887,0.15335 2.7776,1.04227 1.3321,1.33211 1.993,3.58739 2.2824,7.78843 l 0.2304,3.34649 2.544,-2.59083 c 2.8311,-2.88322 2.8497,-2.87106 0.6407,0.4171 -2.0394,3.03562 -3.0796,6.40409 -2.8522,9.23674 0.217,2.7035 1.0878,4.37433 3.8847,7.45394 1.24,1.365292 2.9612,3.557262 3.825,4.871052 0.8638,1.3138 1.6242,2.46293 1.6899,2.55363 0.066,0.0907 0.6799,-0.52355 1.3649,-1.36498 2.6792,-3.29068 6.4017,-6.843082 9.5172,-9.082342 l 3.2607,-2.34367 -0.2116,-2.57364 c -0.252,-3.06522 -1.2953,-7.01136 -2.4772,-9.36971 -0.4703,-0.93855 -1.9707,-2.85817 -3.334,-4.2658 -2.7341,-2.82283 -3.1838,-3.84444 -2.4575,-5.58269 0.6339,-1.517126 2.3557,-2.788836 5.4042,-3.991526 3.1731,-1.25181 3.8852,-1.2657 1.9493,-0.038 -1.8087,1.14707 -3.3872,2.927796 -3.3872,3.821186 0,1.06814 0.7046,2.38092 3.3576,6.25529 2.9221,4.26742 3.6079,5.86167 4.1271,9.59495 0.2059,1.48007 0.4273,2.74401 0.492,2.80876 0.065,0.0647 1.078,-0.90877 2.2516,-2.16337 6.452796,-6.89807 8.038596,-13.68178 4.556096,-19.490086 -1.5629,-2.60685 -3.306796,-4.35412 -5.373396,-5.38394 -4.2183,-2.10209 -10.0597,-0.27679 -15.4681,4.83344 -0.9854,0.93102 -1.7916,1.5168 -1.7916,1.30173 0,-0.55561 2.4312,-4.22583 3.613,-5.45428 0.5466,-0.56821 1.5098,-1.42988 2.1404,-1.91483 l 1.1465,-0.88173 -2.8528,-0.24443 c -7.6687,-0.65709 -11.0173,-2.68559 -10.3698,-6.28176 0.5511,-3.0607 3.4654,-6.6084 7.029,-8.55668 l 1.5118,-0.82652 -1.8057,1.6387 c -2.3125,2.09866 -2.8713,3.21574 -2.9268,5.85156 -0.066,3.11171 1.1965,4.61052 5.0043,5.94314 3.6337,1.27167 6.3016,1.67978 8.2751,1.26583 5.4629,-1.14586 12.903596,2.76308 15.570196,8.17978 3.32981,6.763656 0.1118,16.775246 -8.117596,25.255186 l -2.4278,2.5017 -0.2281,3.320072 c -0.4197,6.10847 -0.916,8.74702 -2.5979,13.81056 -1.9335,5.8211 -4.129,10.56398 -6.1114,13.20239 -1.6251,2.16281 -1.7646,2.73727 -0.454,1.86961 4.3331,-2.8687 8.0313,-4.52967 13.0275,-5.85096 4.815596,-1.27355 13.058102,-1.47538 18.111102,-0.44346 2.8142,0.57469 8.3083,2.47455 11.4363,3.95467 0.1902,0.09 0.6127,-0.85382 0.9389,-2.09737 1.0163,-3.87517 2.4858,-6.47972 5.2284,-9.26716 2.4417,-2.48169 2.4958,-2.57337 2.0347,-3.45012 -1.8437,-3.50554 -7.0004,-8.82368 -11.4403,-11.7984 -6.8558,-4.593302 -12.3406,-11.598762 -14.7381,-18.824102 -1.178696,-3.55219 -1.119596,-8.13189 0.1398,-10.830386 1.327,-2.84322 2.6868,-4.41021 5.3815,-6.20167 2.0021,-1.33101 2.6167,-1.99335 4.0512,-4.36597 2.6052,-4.3089 5.4996,-8.01168 8.5129,-10.89056 5.4393,-5.196711 9.9511,-6.202131 14.1335,-3.14954 0.8915,0.65069 1.6209,1.33219 1.6209,1.51447 0,0.19261 -0.6074,0.2507 -1.4503,0.13871 -2.9697,-0.39455 -7.7232,1.13811 -11.4466,3.6907 -2.0777,1.42442 -5.8773,5.30673 -7.7176,7.88567 -0.8616,1.20738 -1.5661,2.25252 -1.5656,2.32252 4e-4,0.07 1.1906,0.13521 2.6447,0.14488 2.0945,0.0139 3.0336,0.19897 4.5206,0.89068 2.4929,1.15967 4.767,3.23468 6.3961,5.836 2.0535,3.279286 1.9864,3.574326 -0.3262,1.43328 -4.0746,-3.77239 -7.8436,-5.62235 -11.436,-5.61318 -2.8482,0.007 -3.5308,0.46887 -4.2873,2.89921 -0.8577,2.75529 -0.6689,6.552326 0.4322,8.698106 1.1784,2.29619 4.8812,5.76566 12.2924,11.51794 8.0215,6.22595 12.4509,10.12636 15.1746,13.362102 1.1202,1.33077 2.1338,2.41959 2.2525,2.41959 0.1187,0 1.2157,-0.75688 2.4377,-1.68196 7.1143,-5.385692 12.1778,-18.764072 9.963,-26.323542 -0.7021,-2.39626 -3.6121,-5.373076 -6.1265,-6.267176 -2.7539,-0.97926 -7.4536,-1.06297 -13.167,-0.23451 -2.7459,0.39814 -5.126,0.71901 -5.2893,0.71304 -1.1,-0.0402 4.6608,-3.07402 7.3582,-3.87508 2.325,-0.69043 6.4225,-0.70735 9.0795,-0.0375 1.1186,0.28202 3.6072,1.28592 5.5302,2.23089 2.9758,1.46234 3.698,1.98525 4.8509,3.51224 1.6661,2.206746 2.2744,3.623356 2.7056,6.300956 1.0835,6.72782 -3.1282,16.27172 -11.9324,27.039482 l -2.7141,3.31937 0.6498,1.51596 c 1.7784,4.14882 1.8797,10.28445 0.2491,15.07878 -1.3082,3.8462 -3.411,7.90499 -5.7013,11.00457 -1.09,1.47518 -2.4707,3.6035 -3.0683,4.72961 -5.6748,10.69528 -15.392,18.50333 -26.929,21.63819 -2.8613,0.7775 -8.2477,1.61215 -9.551596,1.48011 z m -32.092806,-24.45793 0.7225,-1.16901 -0.7323,-2.15813 c -1.0097,-2.97553 -0.7739,-6.79672 0.6795,-11.00922 1.0514,-3.04743 1.4515,-7.07101 0.7465,-7.50672 -0.3808,-0.23538 -1.8255,3.3263 -2.7843,6.86469 -0.8605,3.17557 -1.2417,9.66698 -0.7277,12.3937 0.365,1.93665 0.9566,3.7537 1.2221,3.7537 0.083,0 0.4764,-0.52605 0.8737,-1.16901 z m 66.677502,-1.30502 c 0.5289,-3.01016 0.6049,-5.54541 0.2467,-8.23682 -0.3973,-2.9856 -1.5693,-7.48223 -2.5691,-9.85667 l -0.5419,-1.28715 -2.1251,1.44244 c -3.8578,2.61853 -6.0954,5.34906 -6.568,8.01484 -0.1557,0.87794 0.051,1.12068 2.272,2.6719 1.3439,0.93842 3.8409,3.20242 5.549,5.0311 1.708,1.82869 3.2037,3.3259 3.3235,3.32715 0.1199,0.001 0.3057,-0.49681 0.4129,-1.10679 z m -61.070302,-7.30013 c 0.6548,-3.33273 1.3626,-4.89559 3.5301,-7.79495 1.8915,-2.53023 2.821,-4.35749 3.9769,-7.81816 1.6798,-5.02927 3.2316,-14.879692 2.3441,-14.879692 -0.6862,0 -4.3804,2.986302 -6.4778,5.236632 -1.1692,1.25433 -2.8779,3.39524 -3.7972,4.75757 l -1.6714,2.47697 0.4629,2.21024 c 0.8629,4.12059 0.3978,9.42501 -1.2453,14.20064 -0.7182,2.08766 -0.6602,3.23176 0.2545,5.02105 l 0.4973,0.97292 0.7755,-0.72849 c 0.5567,-0.52302 0.9376,-1.55387 1.3504,-3.65473 z m 34.364202,3.2958 c 5.2752,-0.96901 9.1836,-3.14174 9.1836,-5.10527 0,-1.71754 -3.5852,-3.97469 -7.3648,-4.63665 l -1.3369,-0.23414 1.5356,0.83212 c 1.6882,0.91482 2.4502,2.27445 1.8327,3.27016 -1.7466,2.81661 -12.206496,4.06506 -18.170606,2.16877 -2.2422,-0.71293 -4.136896,-2.14623 -4.136896,-3.12956 0,-0.65312 1.1066,-1.73393 2.559396,-2.49982 1.502,-0.79185 0.2441,-0.7133 -2.314196,0.1445 -2.7615,0.92593 -4.2377,1.85437 -4.8591,3.05594 -1.9574,3.78522 6.619896,7.04108 17.440702,6.62032 2.081,-0.0809 4.6148,-0.29978 5.6305,-0.48637 z m 32.5996,-2.92347 c 2.5501,-5.51938 3.1778,-11.11642 1.8354,-16.36527 -0.3758,-1.46937 -0.7573,-2.74565 -0.8479,-2.83617 -0.091,-0.0905 -0.8963,0.51618 -1.7907,1.34821 -0.8944,0.83204 -2.2114,1.87174 -2.9267,2.31045 -0.7153,0.43871 -1.2211,0.97128 -1.1239,1.18348 2.6196,5.72172 3.8091,10.60398 3.5187,14.44282 -0.1037,1.37137 -0.1136,2.4934 -0.022,2.4934 0.092,0 0.7023,-1.15961 1.3572,-2.57692 z m -4.9034,-22.75258 c 1.4545,-1.10044 2.6446,-2.19878 2.6446,-2.44076 0,-0.58014 -2.3786,-3.96615 -4.5665,-6.500562 -2.8322,-3.28084 -7.0021,-6.70056 -13.6195,-11.16946 -7.5471,-5.09678 -10.6956,-8.03457 -11.8272,-11.03583 -0.6654,-1.76466 -0.7464,-2.47169 -0.5858,-5.11868 0.1712,-2.822286 0.1434,-3.015886 -0.3435,-2.388716 -2.2532,2.902576 -3.1256,7.956506 -1.9841,11.493966 1.8225,5.64774 7.0869,11.73375 14.9029,17.22888 3.1596,2.2214 6.7492,5.752242 9.7342,9.574982 1.3507,1.72975 2.3605,2.73487 2.6034,2.59139 0.2183,-0.12893 1.5869,-1.13477 3.0415,-2.23521 z"
       id="path4643"
       inkscape:connector-curvature="0" />
    <g
       id="g4631"
       transform="translate(14.882813,-7.4414055)" />
  </g>
</svg>
