<?xml version="1.0" encoding="UTF-8" standalone="no"?>
<svg
   xmlns:dc="http://purl.org/dc/elements/1.1/"
   xmlns:cc="http://creativecommons.org/ns#"
   xmlns:rdf="http://www.w3.org/1999/02/22-rdf-syntax-ns#"
   xmlns:svg="http://www.w3.org/2000/svg"
   xmlns="http://www.w3.org/2000/svg"
   xmlns:sodipodi="http://sodipodi.sourceforge.net/DTD/sodipodi-0.dtd"
   xmlns:inkscape="http://www.inkscape.org/namespaces/inkscape"
   width="210mm"
   height="297mm"
   viewBox="0 0 210 297"
   version="1.1"
   id="svg8"
   sodipodi:docname="grey_talons.svg"
   inkscape:version="1.0.1 (3bc2e813f5, 2020-09-07)">
  <defs
     id="defs2" />
  <sodipodi:namedview
     id="base"
     pagecolor="#ffffff"
     bordercolor="#666666"
     borderopacity="1.0"
     inkscape:pageopacity="0.0"
     inkscape:pageshadow="2"
     inkscape:zoom="0.32"
     inkscape:cx="92.204926"
     inkscape:cy="1183.1685"
     inkscape:document-units="mm"
     inkscape:current-layer="layer1"
     showgrid="false"
     inkscape:window-width="1920"
     inkscape:window-height="1001"
     inkscape:window-x="-9"
     inkscape:window-y="-9"
     inkscape:window-maximized="1"
     inkscape:document-rotation="0" />
  <metadata
     id="metadata5">
    <rdf:RDF>
      <cc:Work
         rdf:about="">
        <dc:format>image/svg+xml</dc:format>
        <dc:type
           rdf:resource="http://purl.org/dc/dcmitype/StillImage" />
        <dc:title />
      </cc:Work>
    </rdf:RDF>
  </metadata>
  <g
     inkscape:label="Layer 1"
     inkscape:groupmode="layer"
     id="layer1">
    <g
       id="g4631"
       transform="translate(-216.6276,198.4375)">
      <path
         style="fill:#888279;stroke-width:0.352778"
         d="m 321.47453,-19.732945 c -1.99867,-0.5905 -3.09491,-1.61187 -4.21863,-3.93051 -1.58504,-3.27053 -1.9161,-6.0215 -1.68274,-13.98301 0.21255,-7.251773 0.8545,-12.35271 2.73384,-21.722989 1.1275,-5.621612 4.12791,-18.026309 4.55093,-18.815025 0.13882,-0.258819 0.4426,0.931806 0.67508,2.645833 3.47185,25.597333 4.2571,30.214962 6.22917,36.630301 3.20941,10.44053 3.38605,14.01573 0.83599,16.92009 -1.64302,1.8713 -6.42359,3.05302 -9.12364,2.25531 z m 4.59158,-2.10257 c 1.07009,-0.22949 2.26789,-0.79256 2.91391,-1.36978 1.00843,-0.90103 1.10709,-1.18982 1.2227,-3.57908 l 0.12575,-2.59897 -0.93137,1.14674 c -1.54414,1.90121 -3.92507,3.07257 -5.99518,2.94951 -0.5923,-0.0352 -0.53326,-0.14701 0.36781,-0.6965 1.43111,-0.87272 2.701,-2.42704 4.25885,-5.21273 l 1.28797,-2.30311 -0.6357,-2.17529 c -0.34964,-1.1964 -0.75935,-2.31783 -0.91048,-2.49205 -0.15112,-0.17423 -1.16896,0.50046 -2.26185,1.4993 -2.67481,2.44462 -3.29187,2.4886 -1.80196,0.12843 1.39786,-2.21434 2.69397,-4.95266 2.69397,-5.6916 0,-0.38495 -0.17246,-1.50405 -0.38324,-2.486897 l -0.38324,-1.786981 -1.07217,0.902172 c -0.5897,0.496196 -1.13553,0.838811 -1.21297,0.761372 -0.0774,-0.07744 0.31683,-1.108452 0.87615,-2.29114 0.90863,-1.921294 0.9855,-2.349291 0.72169,-4.018138 -0.2773,-1.75423 -0.62028,-2.267525 -2.074,-3.103894 -0.44453,-0.25575 -0.38136,-0.463494 0.39491,-1.298762 l 0.92408,-0.994319 -0.80468,-5.583837 c -0.44257,-3.071114 -0.88158,-5.660746 -0.97558,-5.754744 -0.20524,-0.205246 -1.26102,4.310246 -2.51847,10.771336 -0.86356,4.43721 -0.8834,4.764267 -0.3263,5.379861 0.32624,0.360493 0.79732,0.65544 1.04684,0.65544 0.24952,0 0.5625,0.176099 0.69553,0.391329 0.17025,0.275481 -0.17239,0.321342 -1.15744,0.154919 l -1.3993,-0.236407 -0.40307,2.931883 c -2.0276,14.748417 -0.96808,24.203717 2.90088,25.887987 1.3523,0.5887 2.47809,0.61533 4.81596,0.11395 z m -19.95031,-15.53983 c -2.52236,-2.13854 -4.92798,-4.16287 -5.34581,-4.49851 l -0.7597,-0.61024 0.47122,-7.683828 c 0.25917,-4.226105 0.5364,-7.749007 0.61607,-7.828679 0.0797,-0.07967 2.38065,5.412913 5.11331,12.205734 2.73265,6.792813 4.86104,12.340053 4.72974,12.327183 -0.13129,-0.0129 -2.30247,-1.77312 -4.82483,-3.91166 z m 29.06309,2.28268 c 4.05422,-10.241765 8.66765,-21.619504 9.05445,-22.330232 l 0.48338,-0.888224 0.0401,1.234723 c 0.022,0.679097 0.22796,4.236991 0.45759,7.906434 l 0.41752,6.671709 -5.11778,4.28448 c -2.81477,2.35647 -5.31803,4.405 -5.56278,4.5523 -0.29194,0.1757 -0.21367,-0.31661 0.22754,-1.43119 z m -27.43971,-16.68191 c -2.38955,-5.410909 -4.28793,-10.008154 -4.21862,-10.216095 0.18879,-0.566364 12.36164,-13.482758 12.53924,-13.305162 0.14472,0.14472 -3.70685,33.090157 -3.88989,33.273197 -0.0473,0.0473 -2.04117,-4.341028 -4.43073,-9.75194 z m 25.58815,8.80929 c -0.36492,-1.698889 -3.79301,-31.451538 -3.68476,-31.980271 0.0668,-0.326273 2.5115,2.031859 6.28296,6.060483 3.39548,3.627017 6.22333,6.72629 6.28411,6.88728 0.0964,0.25533 -7.00459,16.668626 -8.23413,19.032508 l -0.45874,0.88194 z m 17.91428,-12.5651 c -0.15541,-2.499543 -0.29167,-5.497124 -0.3028,-6.661291 l -0.0202,-2.116667 5.99722,-0.44069 c 3.29847,-0.242379 6.59575,-0.401129 7.32727,-0.352777 l 1.33006,0.08791 -7.02448,7.014069 -7.02447,7.014065 -0.28257,-4.544621 z m 9.00981,-7.309047 c -0.22385,-0.20326 -7.03356,0.347556 -7.27441,0.588405 -0.1079,0.1079 -0.0808,1.654093 0.0602,3.435988 l 0.25642,3.239809 3.55918,-3.559182 c 1.95755,-1.957553 3.48691,-3.624809 3.39857,-3.70502 z m -80.48021,10.913825 c -2.65384,-0.213561 -4.90078,-0.467666 -4.99321,-0.56468 -0.17694,-0.185717 0.68565,-12.680728 0.88949,-12.884563 0.065,-0.06504 3.18518,3.045506 6.93366,6.912321 l 6.8154,7.030575 -2.4101,-0.05268 c -1.32555,-0.02896 -4.58141,-0.227411 -7.23524,-0.440973 z m 6.76542,-6.385514 c -6.34306,-6.349322 -6.79112,-6.879406 -5.81744,-6.882285 2.45767,-0.0073 13.42461,0.830725 13.66911,1.04447 0.29907,0.261454 -0.46335,12.716982 -0.77843,12.716982 -0.11047,0 -3.29343,-3.095625 -7.07324,-6.879167 z m 5.80064,-0.768459 0.2456,-3.237904 -1.52381,-0.187081 c -0.8381,-0.102895 -2.61563,-0.256371 -3.95007,-0.341055 l -2.42626,-0.153981 3.64315,3.655589 c 2.00373,2.010576 3.67074,3.621109 3.70447,3.578963 0.0337,-0.04214 0.17184,-1.533684 0.30692,-3.314531 z m 64.42505,6.677487 c 1.40656,-1.60263 12.80612,-13.129545 12.8958,-13.039869 0.0777,0.07768 0.7035,8.002259 0.91138,11.540564 l 0.0933,1.5875 -5.46237,0.409931 c -3.00431,0.22546 -6.32348,0.423898 -7.37595,0.440972 l -1.91358,0.03105 0.85145,-0.970139 z m -98.60227,-1.023754 c -3.48038,-0.269653 -6.38147,-0.543786 -6.44687,-0.609184 -0.15474,-0.154739 0.6191,-11.879438 0.82815,-12.547469 0.10368,-0.331343 2.56642,1.894103 7.02332,6.346606 3.77501,3.771283 6.86365,6.977465 6.86365,7.124852 0,0.319098 -0.1702,0.312617 -8.26825,-0.314805 z m -0.0987,-5.486858 c -1.98011,-1.98011 -3.66559,-3.527923 -3.74551,-3.439584 -0.0799,0.08834 -0.25607,1.620792 -0.39145,3.405456 l -0.24614,3.244843 2.05352,0.128033 c 1.12944,0.07042 2.92568,0.158055 3.99165,0.194744 l 1.93813,0.0667 z m 5.35535,-0.998968 c -3.86975,-3.873377 -6.93884,-7.042503 -6.8202,-7.042503 0.79691,0 14.91496,1.086055 14.97665,1.152102 0.13564,0.145221 -0.80945,12.62181 -0.96811,12.780468 -0.0838,0.08384 -3.3186,-3.016687 -7.18834,-6.890067 z m 111.18326,6.339092 c -0.23082,-1.119763 -0.96279,-12.052445 -0.81672,-12.198516 0.2202,-0.220193 14.46404,-1.190082 14.65616,-0.997962 0.10777,0.10777 -2.92222,3.31411 -6.73332,7.125204 -6.24423,6.244237 -6.94674,6.844439 -7.10612,6.071274 z m 4.36451,0.479058 c 0,-0.157022 3.08354,-3.36599 6.85231,-7.131043 l 6.8523,-6.845547 0.1909,1.204496 c 0.2091,1.319425 0.9143,11.735894 0.80211,11.848077 -0.0382,0.03825 -2.44804,0.238848 -5.35511,0.445774 -2.90706,0.206925 -6.19838,0.463419 -7.31404,0.569983 -1.11566,0.106563 -2.02847,0.06528 -2.02847,-0.09174 z m 12.57584,-2.696387 c 0.16869,-0.167199 -0.36611,-6.578155 -0.54875,-6.578155 -0.12225,0 -1.80679,1.602938 -3.74343,3.562085 l -3.52116,3.562086 3.88056,-0.247125 c 2.1343,-0.135918 3.90406,-0.270418 3.93278,-0.298891 z m 5.20969,-2.915475 c -0.15541,-2.499543 -0.29167,-5.497124 -0.3028,-6.661291 l -0.0202,-2.116667 5.99722,-0.44069 c 3.29847,-0.242379 6.59575,-0.401129 7.32727,-0.352777 l 1.33006,0.08791 -7.02448,7.014069 -7.02447,7.014065 -0.28257,-4.544621 z M 241.0283,-61.48612 c -5.72801,-5.733662 -6.72609,-6.879509 -5.99383,-6.881224 2.42042,-0.0057 13.61362,0.835685 13.84549,1.040719 0.299,0.2644 -0.46325,12.719671 -0.77843,12.719671 -0.11047,0 -3.29342,-3.095625 -7.07323,-6.879166 z m 60.82187,-6.35 c 0.0956,-0.582084 0.74865,-6.217709 1.45133,-12.523611 0.70268,-6.305903 1.38523,-11.74351 1.51679,-12.083574 0.18022,-0.465892 1.1957,0.831787 4.11974,5.26463 2.1343,3.235611 4.15197,6.324977 4.4837,6.86526 l 0.60315,0.982327 -6.17422,6.276651 c -5.23987,5.326799 -6.14793,6.116492 -6.00049,5.218317 z m 35.86572,-5.265159 c -5.99739,-6.004744 -6.12729,-6.166104 -5.6091,-6.967361 5.12075,-7.917995 8.52492,-12.988615 8.64159,-12.87194 0.0803,0.08028 0.76947,5.523505 1.53153,12.096047 0.76206,6.572543 1.4422,12.386642 1.51143,12.920218 0.0692,0.533577 0.11199,0.970139 0.095,0.970139 -0.017,0 -2.79368,-2.766197 -6.17045,-6.147103 z m -53.11953,2.489747 c -5.15848,-0.687589 -5.64445,-0.813114 -5.64445,-1.457922 0,-1.614561 0.99918,-9.732203 1.21428,-9.865141 0.12843,-0.07937 2.36838,2.258992 4.97767,5.196371 5.87672,6.615649 6.16461,6.973757 5.56352,6.920442 -0.25662,-0.02275 -3.00658,-0.379946 -6.11102,-0.79375 z m 4.33912,-5.076931 c -2.85223,-3.235311 -5.11867,-5.949597 -5.03652,-6.031745 0.22003,-0.220024 11.02237,1.091784 11.51924,1.398866 0.32957,0.20369 0.32672,1.110784 -0.0128,4.080513 -0.59038,5.163362 -0.80557,6.467098 -1.06451,6.44959 -0.12072,-0.0082 -2.55314,-2.661913 -5.40538,-5.897224 z m 4.46877,-0.644024 c 0.13537,-1.08349 0.15388,-2.062233 0.0411,-2.174992 -0.24769,-0.247688 -4.49667,-0.854131 -4.68249,-0.668312 -0.15536,0.155359 3.84539,4.745284 4.1713,4.785589 0.12316,0.01524 0.3347,-0.858799 0.47007,-1.942285 z m 57.324,6.372916 c -0.008,-0.190295 -0.30492,-2.568494 -0.66054,-5.284883 -0.35562,-2.716388 -0.59883,-4.993675 -0.54046,-5.060636 0.18316,-0.210114 10.83103,-1.50417 11.47095,-1.394082 0.44726,0.07694 -0.55436,1.414642 -3.77648,5.043607 -5.15298,5.803614 -6.47451,7.16636 -6.49347,6.695994 z m 5.88459,-9.233221 c -0.18005,-0.18005 -4.43578,0.455602 -4.67906,0.698885 -0.12022,0.120216 -0.10183,1.13865 0.0409,2.263182 l 0.25944,2.044605 2.24643,-2.446288 c 1.23553,-1.345456 2.19507,-2.497632 2.13232,-2.560384 z m -2.11578,8.976473 c 0.53769,-0.910043 10.48145,-11.899695 10.63146,-11.749684 0.29255,0.292552 1.43506,10.256379 1.20107,10.474516 -0.13286,0.123853 -2.62281,0.492365 -5.53323,0.81891 -2.91041,0.326545 -5.58635,0.677827 -5.94652,0.780623 -0.49847,0.142268 -0.58271,0.0648 -0.35278,-0.324365 z m -84.49336,-7.733594 c -2.98124,-3.347816 -5.2724,-6.13628 -5.09147,-6.196591 0.43652,-0.145507 11.45159,1.257483 11.68206,1.487946 0.17392,0.173926 -0.48138,6.750988 -0.94231,9.457623 l -0.22785,1.337962 z m 4.35055,-0.852019 c 0.13537,-1.08349 0.18175,-2.03436 0.10306,-2.11305 -0.19451,-0.194508 -4.64514,-0.804256 -4.80515,-0.658315 -0.1639,0.149479 3.93447,4.740888 4.23202,4.741146 0.12316,1.09e-4 0.33469,-0.886294 0.47007,-1.969781 z m 95.42056,6.714839 c -0.01,-0.184326 -0.30857,-2.637013 -0.66446,-5.450416 -0.3559,-2.813403 -0.62031,-5.147306 -0.5876,-5.186458 0.13937,-0.166761 11.92054,-1.566153 12.0548,-1.431893 0.0813,0.08135 -2.17032,2.754697 -5.00371,5.940767 -6.31554,7.10166 -5.77799,6.533614 -5.79903,6.128 z m 5.60362,-9.051258 c 0.42675,-0.598942 0.39364,-0.644899 -0.35278,-0.489609 -0.45305,0.09425 -1.57779,0.269144 -2.49942,0.388641 -1.84827,0.239638 -1.94111,0.461229 -1.44671,3.452989 l 0.22122,1.338678 1.80337,-2.014858 c 0.99185,-1.10817 2.0153,-2.3123 2.27432,-2.675841 z m -110.18485,8.113709 c -2.91042,-0.38263 -5.33814,-0.741129 -5.39494,-0.796667 -0.1113,-0.108832 0.90188,-8.669863 1.18022,-9.972432 0.14401,-0.673975 0.84111,-0.03507 4.81122,4.409723 2.55354,2.858844 5.04147,5.63446 5.52873,6.168037 l 0.88594,0.970138 -0.85976,-0.04155 c -0.47286,-0.02285 -3.241,-0.354612 -6.15141,-0.737246 z m 108.89458,-0.233362 c 1.82131,-2.249999 9.99691,-11.270894 10.11119,-11.156618 0.15029,0.150297 1.49183,10.501192 1.37494,10.608676 -0.0824,0.07581 -11.54281,1.560103 -12.04567,1.560103 -0.14288,0 0.10891,-0.455471 0.55954,-1.012161 z m -122.80217,-7.128863 c -2.96388,-3.309683 -5.33342,-6.064222 -5.26565,-6.121199 0.18598,-0.156337 11.86058,1.358502 12.06463,1.565445 0.19145,0.194179 -1.01747,10.180725 -1.26204,10.425292 -0.0814,0.08144 -2.57306,-2.559854 -5.53694,-5.869538 z m 4.52381,-1.648559 c 0.0317,-1.350366 -0.0476,-1.499305 -0.79754,-1.499305 -0.45799,0 -1.60475,-0.105819 -2.54836,-0.235155 l -1.71565,-0.235158 2.27993,2.565326 c 2.12619,2.392352 2.29565,2.509305 2.51319,1.734464 0.1283,-0.456978 0.24909,-1.505554 0.26843,-2.330172 z m 132.538,6.936462 c -0.41195,-1.907195 -1.24772,-9.633642 -1.06237,-9.82133 0.1968,-0.199291 11.87366,-1.762996 12.05973,-1.614981 0.0847,0.06738 -8.49178,9.862968 -10.16744,11.612699 -0.63455,0.662598 -0.64938,0.659444 -0.82992,-0.176388 z m 5.76942,-8.541481 c 0.0155,-0.263221 -4.10334,0.0344 -4.63443,0.334868 -0.22812,0.129063 -0.10154,1.735321 0.28532,3.620537 0.16331,0.795866 0.30951,0.704324 2.25356,-1.411111 1.1434,-1.244205 2.0864,-2.389138 2.09555,-2.544294 z m -77.2871,-11.800391 0.13098,-12.964724 1.71422,11.641662 1.71422,11.641667 -1.49242,1.321964 c -0.82084,0.727078 -1.65118,1.322454 -1.84521,1.323058 -0.23117,7.05e-4 -0.30762,-4.467888 -0.22179,-12.963627 z m 10.62874,12.206326 c -0.48507,-0.404054 -1.17177,-0.938068 -1.526,-1.186702 -0.61814,-0.433878 -0.57869,-0.918193 0.98088,-12.041816 0.89371,-6.374362 1.68694,-11.748512 1.76273,-11.942532 0.0758,-0.19403 0.15033,5.56066 0.16565,12.78819 0.0153,7.227535 -0.0912,13.135691 -0.23673,13.129235 -0.14552,-0.0065 -0.66146,-0.342325 -1.14653,-0.746375 z m -36.82322,-7.376111 c -2.86298,-4.295658 -5.13645,-7.87926 -5.05216,-7.963556 0.14215,-0.142137 13.34001,3.325502 13.58878,3.570351 0.14167,0.139443 -2.74045,11.133981 -3.07966,11.7481 -0.16055,0.290671 -2.13446,-2.369757 -5.45696,-7.354895 z m 58.61434,7.546979 c -0.35992,-0.663067 -3.20121,-11.770258 -3.04967,-11.921801 0.23492,-0.234918 13.44058,-3.757076 13.57657,-3.621087 0.0622,0.06224 -2.24486,3.651151 -5.12689,7.975371 -2.88202,4.324219 -5.31203,7.7296 -5.40001,7.567517 z m -64.06071,-2.427584 c -3.74849,-1.020452 -6.86225,-1.91051 -6.91949,-1.977909 -0.17619,-0.207482 3.0584,-11.941351 3.28838,-11.928968 0.22703,0.01221 10.67644,15.590107 10.53076,15.699175 -0.0463,0.03468 -3.15117,-0.771846 -6.89965,-1.792298 z m -0.15045,-5.426922 c -1.40752,-2.1206 -2.66211,-3.747787 -2.78798,-3.615972 -0.28643,0.299967 -1.70148,5.482488 -1.54082,5.643143 0.16614,0.166144 5.90869,1.772793 6.44547,1.803312 0.24336,0.01383 -0.70914,-1.709883 -2.11667,-3.830483 z m 68.17282,7.150319 c 0,-0.29894 10.36763,-15.641902 10.56963,-15.641902 0.41734,0 3.32586,11.646796 2.98599,11.957022 -0.33815,0.308659 -13.55562,3.901619 -13.55562,3.68488 z m 7.7682,-4.015303 c 1.45131,-0.396342 2.8992,-0.798403 3.21753,-0.893469 0.52657,-0.157262 0.51017,-0.424216 -0.18177,-2.959531 -0.41831,-1.532671 -0.83751,-2.862096 -0.93156,-2.954274 -0.13518,-0.132485 -3.67889,4.836189 -5.03923,7.065561 -0.37088,0.607797 -0.1724,0.590331 2.93503,-0.258287 z m -91.80435,-8.55631 c -2.85466,-4.290178 -5.12112,-7.869508 -5.03656,-7.954078 0.17249,-0.17248 12.5908,3.08042 13.20206,3.4582 0.27085,0.1674 -0.0955,2.065461 -1.19132,6.171614 -0.87035,3.261431 -1.62777,5.973685 -1.68316,6.027233 -0.0554,0.05355 -2.43635,-3.41279 -5.29102,-7.702969 z m 101.56022,7.248461 c -0.51591,-0.872465 -3.08899,-11.481719 -2.83713,-11.698009 0.41676,-0.35791 12.79194,-3.63102 13.20624,-3.49292 0.29838,0.0995 -9.69639,15.455512 -10.05951,15.455512 -0.0842,0 -0.22354,-0.119062 -0.3096,-0.264583 z m -107.48241,-2.26737 c -3.58952,-0.97398 -6.55711,-1.799181 -6.59465,-1.833781 -0.0566,-0.05212 2.81873,-10.915798 3.18518,-12.034518 0.0628,-0.19188 2.52429,3.26094 5.46987,7.672915 2.94557,4.41198 5.15543,8.00929 4.91079,7.994022 -0.24464,-0.01527 -3.38168,-0.824657 -6.97119,-1.798638 z m 2.27878,-2.318741 c -1.86561,-2.897752 -4.59708,-6.790918 -4.76457,-6.790948 -0.18598,-2e-5 -1.79328,5.72455 -1.64449,5.857032 0.10477,0.09328 6.36183,1.834586 6.72849,1.872499 0.16784,0.01736 0.0241,-0.405007 -0.31943,-0.938583 z m 109.41857,3.704166 c 0.57079,-0.963601 6.0222,-9.100703 8.19018,-12.225144 l 2.30195,-3.31751 1.51517,5.610563 c 0.83335,3.085811 1.51884,5.882259 1.52333,6.214329 0.005,0.402809 -0.43217,0.720926 -1.31477,0.955777 -0.72761,0.193612 -3.70417,0.992396 -6.61459,1.775076 -5.92283,1.592791 -5.9645,1.600136 -5.60127,0.986909 z m 8.3671,-3.820226 c 1.32717,-0.343031 2.50665,-0.717296 2.62105,-0.831699 0.26083,-0.260826 -0.93695,-5.423949 -1.31207,-5.655779 -0.23474,-0.14508 -1.62701,1.787733 -4.79008,6.649812 l -0.66124,1.016412 0.86465,-0.277526 c 0.47555,-0.152637 1.95051,-0.558186 3.27769,-0.90122 z m -71.28545,-0.517307 c -0.62864,-2.069511 -3.40832,-7.633601 -7.04402,-14.100051 -4.61921,-8.21571 -6.03768,-11.64705 -6.82034,-16.49874 -0.74815,-4.63774 0.57753,-8.05016 3.67358,-9.45613 5.92135,-2.68899 10.60121,2.56561 11.02401,12.37787 0.0878,2.03729 0.0338,9.41917 -0.12006,16.40417 -0.23937,10.870192 -0.34213,12.494381 -0.71317,11.272881 z m -1.22178,-13.036771 c -0.11181,-2.49788 -0.34486,-3.61543 -1.09279,-5.24017 -0.69224,-1.5038 -0.80756,-2.00725 -0.42421,-1.85209 0.28955,0.1172 0.76457,0.30945 1.05562,0.42723 0.42851,0.1734 0.52916,-0.12257 0.52916,-1.55603 0,-1.73412 -0.0306,-1.78487 -1.4993,-2.49212 -0.82462,-0.39707 -2.19218,-0.83131 -3.03903,-0.96496 -2.36596,-0.37342 -0.89361,-0.9271 2.08875,-0.78548 l 2.45117,0.1164 -7e-4,-1.78608 c -7.5e-4,-1.48834 -0.16261,-1.94037 -0.97103,-2.71159 -1.09919,-1.04862 -2.53831,-1.67594 -3.84472,-1.67594 -0.5171,0 -0.83137,-0.17101 -0.75198,-0.40918 0.2097,-0.62913 2.44088,-1.70749 3.53287,-1.70749 1.17619,0 1.18755,-0.13572 0.16241,-1.94028 -0.78855,-1.38809 -0.83451,-1.41111 -2.81707,-1.41111 -2.19372,0 -2.42899,-0.19859 -1.23009,-1.03833 0.77395,-0.54209 0.76827,-0.54915 -0.44098,-0.54785 -1.65903,0.002 -3.45208,1.16568 -4.06847,2.64091 -0.96713,2.31465 -0.35978,7.71665 0.913,8.12061 0.54865,0.17414 0.60038,0.34934 0.29868,1.0115 -0.28755,0.6311 -0.17168,1.27642 0.54656,3.04401 0.78151,1.92332 5.41736,10.57146 7.7525,14.46221 0.7252,1.20832 0.74373,1.21586 0.8664,0.35277 0.0689,-0.48507 0.0614,-2.31069 -0.0168,-4.05694 z m -62.84744,5.11528 c -2.84496,-4.26861 -4.9889,-7.76111 -4.76433,-7.76111 0.7521,0 12.81831,3.27854 13.14905,3.57277 0.3401,0.30254 -2.57029,11.949448 -2.98598,11.949448 -0.12436,0 -2.55379,-3.4925 -5.39874,-7.761108 z m 142.21357,1.85208 c -1.08345,-4.03921 -1.46163,-5.97829 -1.19514,-6.12792 0.51035,-0.28655 12.63973,-3.48527 13.21596,-3.48527 0.42676,0 -9.77992,15.492422 -10.21985,15.512407 -0.11879,0.0054 -0.92922,-2.649252 -1.80097,-5.899217 z m -67.3039,2.229619 c 0,-0.148075 -0.70447,-3.627349 -1.56549,-7.731709 -2.56793,-12.24098 -3.16046,-16.76106 -3.17487,-24.21944 -0.0116,-6.00015 0.0526,-6.68876 0.79624,-8.54022 0.95007,-2.36541 2.3229,-3.64988 4.2487,-3.97524 2.97746,-0.50304 5.91694,1.37678 6.72976,4.30374 1.0314,3.71403 0.39136,7.82756 -5.11702,32.88724 -1.37736,6.266152 -1.91732,8.315124 -1.91732,7.275629 z m 1.02673,-12.575009 c 0.89844,-3.90215 0.95031,-5.81623 0.16946,-6.25322 -0.49374,-0.27631 -0.40009,-0.57014 0.71875,-2.25524 1.98813,-2.99433 1.99065,-5.1478 0.008,-7.13009 -0.51493,-0.51493 -0.42781,-0.56259 1.0285,-0.56259 h 1.59108 l 0.23771,-1.58514 c 0.26968,-1.7984 -0.0172,-3.7516 -0.76295,-5.19364 -0.54393,-1.05184 -0.16539,-1.33741 0.58088,-0.43821 0.81012,0.97614 1.16675,0.019 0.70699,-1.89754 -0.70591,-2.94254 -2.41721,-3.65154 -4.29098,-1.77778 l -0.73141,0.73141 0.25295,-0.82858 c 0.37528,-1.22934 1.18427,-2.00767 2.23463,-2.14995 0.82258,-0.11143 0.76996,-0.16156 -0.44293,-0.42197 -2.07827,-0.44621 -3.07724,0.0648 -4.07879,2.08657 -0.67701,1.36661 -0.89988,2.45815 -1.00841,4.93889 l -0.13933,3.18455 1.89035,-0.0937 1.89035,-0.0937 -1.76389,0.62284 c -2.06275,0.72838 -2.13041,0.92959 -1.76951,5.2622 l 0.24086,2.89146 1.29349,-0.15854 c 0.98275,-0.12046 1.12105,-0.0811 0.57569,0.16388 -1.30343,0.58547 -1.65801,1.32773 -1.40771,2.94678 0.45324,2.93172 2.02849,11.2129 2.13292,11.2129 0.0582,0 0.4375,-1.44074 0.84294,-3.20165 z m 9.7417,7.69956 c 2.97528,-6.00641 4.41474,-10.19057 5.61864,-16.33202 1.23921,-6.32156 2.18837,-9.1532 3.5532,-10.60035 0.97094,-1.02948 1.36642,-1.20166 2.76022,-1.20166 2.44338,0 4.4455,0.92933 5.0334,2.33637 0.67851,1.62391 0.6114,3.18759 -0.25772,6.00494 -1.66532,5.39833 -5.97815,12.14629 -11.71399,18.328 -1.99208,2.14693 -6.90517,6.4918 -7.3408,6.4918 -0.0787,0 0.97745,-2.26219 2.34705,-5.02708 z m 8.14814,-9.73582 c 0.21766,-1.09672 0.4161,-1.64623 0.44098,-1.22111 0.0731,1.25004 0.63878,1.25545 1.40638,0.0135 0.61034,-0.98756 0.66498,-1.38473 0.37067,-2.69459 -0.4158,-1.85058 -0.22877,-2.21904 0.38016,-0.74895 0.85552,2.06539 1.34173,1.15874 1.50743,-2.81091 l 0.0957,-2.29306 0.58743,1.23472 0.58743,1.23473 0.58153,-1.37839 c 0.61694,-1.46233 0.42384,-3.02026 -0.71098,-5.73628 -0.5668,-1.35655 -0.29723,-1.47486 1.01272,-0.44445 0.76005,0.59786 0.92952,0.6315 0.92952,0.18452 0,-1.14374 -3.01391,-2.27385 -4.27057,-1.60131 -0.69653,0.37277 -2.05543,2.84725 -2.07169,3.77243 -0.004,0.24254 0.27007,0.44176 0.60962,0.44273 0.49654,0.001 0.43593,0.15674 -0.30976,0.79375 -0.79224,0.67678 -1.03791,1.39991 -1.68869,4.97071 -0.62801,3.44587 -1.90426,7.94296 -3.41945,12.04906 -0.1432,0.38806 0.60053,-0.30212 1.65273,-1.53373 1.54569,-1.80924 1.98908,-2.62223 2.30882,-4.23333 z"
         id="path4666"
         inkscape:connector-curvature="0" />
    </g>
  </g>
</svg>
