<?xml version="1.0" encoding="UTF-8" standalone="no"?>
<svg
   xmlns:dc="http://purl.org/dc/elements/1.1/"
   xmlns:cc="http://creativecommons.org/ns#"
   xmlns:rdf="http://www.w3.org/1999/02/22-rdf-syntax-ns#"
   xmlns:svg="http://www.w3.org/2000/svg"
   xmlns="http://www.w3.org/2000/svg"
   xmlns:sodipodi="http://sodipodi.sourceforge.net/DTD/sodipodi-0.dtd"
   xmlns:inkscape="http://www.inkscape.org/namespaces/inkscape"
   width="210mm"
   height="297mm"
   viewBox="0 0 210 297"
   version="1.1"
   id="svg8"
   sodipodi:docname="steel_striders.svg"
   inkscape:version="1.0.1 (3bc2e813f5, 2020-09-07)">
  <defs
     id="defs2" />
  <sodipodi:namedview
     id="base"
     pagecolor="#ffffff"
     bordercolor="#666666"
     borderopacity="1.0"
     inkscape:pageopacity="0.0"
     inkscape:pageshadow="2"
     inkscape:zoom="0.32"
     inkscape:cx="-604.67008"
     inkscape:cy="1126.9185"
     inkscape:document-units="mm"
     inkscape:current-layer="layer1"
     showgrid="false"
     inkscape:window-width="1920"
     inkscape:window-height="1001"
     inkscape:window-x="-9"
     inkscape:window-y="-9"
     inkscape:window-maximized="1"
     inkscape:document-rotation="0" />
  <metadata
     id="metadata5">
    <rdf:RDF>
      <cc:Work
         rdf:about="">
        <dc:format>image/svg+xml</dc:format>
        <dc:type
           rdf:resource="http://purl.org/dc/dcmitype/StillImage" />
        <dc:title />
      </cc:Work>
    </rdf:RDF>
  </metadata>
  <g
     inkscape:label="Layer 1"
     inkscape:groupmode="layer"
     id="layer1">
    <path
       style="fill:#f38e1e;stroke-width:0.302765"
       d="m 102.46235,156.58953 c -2.502293,-1.85332 -8.546203,-4.705 -11.807823,-5.57124 -3.63008,-0.9641 -8.18573,-3.22468 -11.50506,-5.70896 -6.48409,-4.85288 -13.816,-14.12332 -17.79258,-22.49688 -0.57533,-1.21148 -1.11462,-2.2027 -1.19841,-2.2027 -0.0838,0 -0.93869,0.68122 -1.89978,1.51382 -0.96108,0.83261 -1.80664,1.51383 -1.87901,1.51383 -0.0724,0 0.6864,-4.49908 1.68617,-9.99795 0.99977,-5.49887 1.92013,-9.96087 2.04525,-9.91555 0.2016,0.073 3.49347,3.66614 9.58227,10.45915 1.08559,1.21115 1.90994,2.26595 1.83188,2.344 -0.078,0.0781 -1.42597,0.38704 -2.99537,0.68663 -2.728,0.52077 -2.84971,0.57744 -2.76832,1.28917 0.10564,0.92375 2.47822,5.12647 5.37698,9.52463 4.12474,6.2583 8.4811,9.57864 14.16736,10.79813 3.45354,0.74065 7.85825,-0.36406 10.10259,-2.53376 l 0.96942,-0.93718 4.267493,2.80452 c 5.75705,3.78344 13.32553,7.67743 13.8679,7.13505 0.0904,-0.0904 0.54262,-1.60986 1.00488,-3.37653 0.46226,-1.76667 0.89565,-3.26731 0.9631,-3.33476 0.0675,-0.0675 0.85214,0.0338 1.74375,0.22502 4.68487,1.00473 10.61181,-1.13254 15.01302,-5.41373 2.71278,-2.63881 9.79476,-13.66014 9.79476,-15.2431 0,-0.32052 -0.79494,-0.57834 -2.91208,-0.94446 -1.60165,-0.27697 -2.98929,-0.5808 -3.08366,-0.67517 -0.0944,-0.0944 0.31,-0.67999 0.8986,-1.30139 0.5886,-0.6214 3.15308,-3.44596 5.69884,-6.27681 2.54576,-2.83085 4.72903,-5.18671 4.85173,-5.23525 0.12269,-0.0485 0.46265,1.24578 0.75546,2.87626 0.29281,1.63049 1.10689,6.09813 1.80908,9.92811 0.70218,3.82997 1.2362,7.01321 1.1867,7.07387 -0.0495,0.0607 -0.91581,-0.60799 -1.92515,-1.48589 -1.00934,-0.87789 -1.87976,-1.54062 -1.93428,-1.47273 -0.0545,0.0679 -0.94928,1.75838 -1.98838,3.75663 -7.28266,14.00507 -17.7299,23.78608 -28.43454,26.62125 -3.2663,0.86509 -8.68024,3.38914 -11.63548,5.42461 -1.12563,0.7753 -2.07934,1.40357 -2.11935,1.39616 -0.04,-0.007 -0.82209,-0.56847 -1.73796,-1.2468 z m 6.38146,-15.99623 c -4.28147,-2.42087 -8.970783,-5.49399 -10.826553,-7.09514 -2.38945,-2.06161 -4.11574,-6.69668 -3.43528,-9.22371 l 0.35749,-1.32762 1.5664,1.5386 c 2.28632,2.24575 4.588493,3.49112 9.398843,5.08433 4.91678,1.62846 5.77,2.00994 6.95436,3.10945 1.28843,1.19611 1.71502,2.24535 1.70315,4.18911 -0.011,1.80246 -1.09975,5.57596 -1.65915,5.75046 -0.1691,0.0528 -1.99576,-0.85872 -4.05926,-2.02548 z M 91.540297,129.88119 c -4.44729,-3.49134 -5.93706,-8.07285 -4.01656,-12.35227 l 0.80514,-1.79411 1.30609,1.49306 c 0.74325,0.84964 1.83642,1.70524 2.53676,1.98547 l 1.23068,0.49242 -0.8441,1.43598 c -0.73435,1.24926 -0.84411,1.75213 -0.84411,3.86736 0,2.10599 0.12478,2.68338 0.93237,4.3144 0.5128,1.03566 0.85341,1.88293 0.75691,1.88282 -0.0965,-1e-4 -0.93493,-0.59641 -1.86318,-1.32513 z m 21.216053,0.88887 c -0.60618,-0.32838 -3.75668,-1.45826 -6.96359,-2.49738 -0.26136,-0.0847 0.25271,-0.41096 1.21106,-0.76863 3.22849,-1.20493 5.93517,-3.51878 6.7591,-5.77812 0.29546,-0.81021 0.69141,-0.39344 1.07554,1.1321 0.68877,2.73534 0.30747,6.39478 -0.8029,7.70552 -0.46634,0.5505 -0.60338,0.57262 -1.27921,0.20651 z m 3.76049,-1.44466 c 0.79382,-1.60158 0.93237,-2.22207 0.93237,-4.17566 0,-1.90485 -0.13955,-2.56353 -0.82166,-3.87825 l -0.82165,-1.5837 1.20823,-0.48344 c 0.67694,-0.27086 1.78254,-1.13996 2.51431,-1.97648 l 1.30609,-1.49306 0.80514,1.79411 c 1.39539,3.10933 1.0661,6.1512 -0.99075,9.1523 -0.97608,1.42418 -4.31614,4.52529 -4.87397,4.52529 -0.10476,0 0.22909,-0.8465 0.74189,-1.88111 z m -30.977223,-2.52844 c -1.76263,-1.48315 -1.78506,-3.39427 -0.0779,-6.64136 0.94572,-1.79884 0.95315,-1.80475 0.76084,-0.60553 -0.10682,0.66609 -0.3114,1.52648 -0.45461,1.91199 -0.45608,1.22771 -0.29519,3.79564 0.3125,4.98758 0.31509,0.61804 0.52991,1.1237 0.47738,1.1237 -0.0525,0 -0.51072,-0.34937 -1.01818,-0.77638 z m 37.494793,-0.40344 c 0.74042,-1.45133 0.80057,-3.50657 0.16405,-5.60482 -0.72934,-2.4042 -0.49482,-2.58976 0.6088,-0.48171 1.65615,3.1634 1.35153,5.83518 -0.79633,6.98468 -0.58726,0.31429 -0.58684,0.29818 0.0235,-0.89815 z m -21.19122,-0.5134 -2.284373,-0.72328 -1.95434,-2.77348 c -1.07488,-1.52541 -1.94465,-2.85505 -1.9328,-2.95476 0.0118,-0.0997 0.2162,-0.21047 0.45414,-0.24614 0.23794,-0.0357 1.32001,1.12241 2.40459,2.5735 l 1.971983,2.63835 3.62917,0.0877 c 1.99605,0.0482 3.90166,0.0146 4.2347,-0.0747 0.33305,-0.0893 1.423,-1.32105 2.42212,-2.73723 1.57436,-2.23153 2.55976,-3.04721 2.62386,-2.17193 0.0101,0.13797 -0.82085,1.46388 -1.84656,2.94649 l -1.86494,2.69564 -2.49945,0.76238 c -1.3747,0.4193 -2.62866,0.74851 -2.78659,0.73155 -0.15793,-0.0169 -1.31511,-0.3563 -2.57151,-0.7541 z m -2.000063,-3.37809 c -3.78386,-5.13318 -3.66656,-4.9102 -4.34034,-8.25034 -0.67417,-3.34203 -1.50238,-5.08583 -3.523,-7.41773 -0.89204,-1.02946 -0.8216,-0.84786 0.46975,1.21106 1.19232,1.90101 1.71386,3.16511 2.42415,5.8756 0.49775,1.89942 0.83398,3.56841 0.74717,3.70887 -0.299,0.4838 -1.96209,0.25372 -3.38764,-0.46867 -0.8703,-0.44101 -1.82053,-1.26946 -2.43087,-2.11935 -0.55112,-0.76742 -1.10092,-1.39531 -1.22177,-1.39531 -0.61741,0 -4.88964,7.67622 -4.88964,8.78556 0,0.19132 -0.1703,0.292 -0.37846,0.22375 -0.72087,-0.23636 -1.19832,-2.4015 -1.03531,-4.69491 0.0858,-1.20728 0.068,-2.19505 -0.0396,-2.19505 -0.10757,0 -1.04705,0.8439 -2.08773,1.87533 -1.04068,1.03143 -1.97977,1.7877 -2.08687,1.68061 -0.1071,-0.1071 -0.0451,-1.04422 0.1378,-2.08248 0.18288,-1.03826 0.28758,-1.93269 0.23266,-1.98761 -0.0549,-0.0549 -0.46126,0.18443 -0.90299,0.53189 -0.44172,0.34746 -0.80313,0.55538 -0.80313,0.46205 0,-0.0933 0.47166,-2.17479 1.04813,-4.62545 0.57648,-2.45067 0.99722,-4.50667 0.93499,-4.5689 -0.0622,-0.0622 -0.47871,0.51065 -0.92552,1.27306 -0.4468,0.76242 -0.88631,1.38621 -0.97667,1.38621 -0.33493,0 0.24988,-3.39521 0.97693,-5.67175 0.88675,-2.77656 0.88991,-2.80566 0.30458,-2.80566 -0.24978,0 -0.45414,-0.0529 -0.45414,-0.11751 0,-0.81177 1.8008,-5.898527 2.86552,-8.094257 l 1.3767,-2.83914 1.35486,-9.38571 c 1.30257,-9.02349 1.3989,-9.4724 2.49605,-11.63211 1.17515,-2.31324 2.35433,-3.52057 3.12415,-3.19871 0.24153,0.10099 0.96425,0.91475 1.60603,1.80836 1.79176,2.49483 7.5949,8.1934 9.07185,8.90838 1.828133,0.88498 8.179573,0.91682 10.087233,0.0506 1.41859,-0.64416 6.34814,-5.4197 9.00979,-8.72829 0.97122,-1.20728 1.86837,-2.19505 1.99368,-2.19505 0.63616,0 1.8525,1.40933 2.84277,3.29382 1.06668,2.0299 1.15927,2.46602 2.48613,11.71009 0.92835,6.46773 1.54122,9.8505 1.87768,10.364 0.67124,1.02445 1.78656,3.68641 2.62745,6.271 1.07648,3.308747 1.15492,3.784557 0.62384,3.784557 -0.58987,0 -0.58668,0.032 0.27132,2.72488 0.70145,2.20149 1.31728,5.75253 0.99763,5.75253 -0.0866,0 -0.52307,-0.62379 -0.96987,-1.38621 -0.44681,-0.76241 -0.86365,-1.33494 -0.92631,-1.27227 -0.0627,0.0627 0.35808,2.13611 0.93499,4.60767 0.5769,2.47155 1.04892,4.55265 1.04892,4.62466 0,0.072 -0.36141,-0.15336 -0.80313,-0.50082 -0.44173,-0.34746 -0.84807,-0.58681 -0.90299,-0.53189 -0.0549,0.0549 0.0498,0.94935 0.23266,1.98761 0.18289,1.03826 0.2449,1.97538 0.1378,2.08248 -0.1071,0.1071 -1.04619,-0.64917 -2.08687,-1.68061 -1.04068,-1.03143 -1.99162,-1.87532 -2.11319,-1.87532 -0.12157,0 -0.14289,0.91964 -0.0474,2.04366 0.18392,2.16422 -0.32705,4.61923 -1.0087,4.84645 -0.20449,0.0682 -0.3718,-0.0326 -0.3718,-0.2239 0,-1.06983 -4.26567,-8.78557 -4.85712,-8.78557 -0.10298,0 -0.62978,0.61624 -1.17067,1.36941 -1.13233,1.57675 -3.3906,2.8693 -5.01306,2.8693 -1.31699,0 -1.32653,-0.1211 -0.32162,-4.08259 0.71389,-2.81424 1.46869,-4.47467 3.09883,-6.81694 0.59748,-0.8585 0.50634,-0.80382 -0.4801,0.28801 -1.79665,1.98862 -2.6465,3.78504 -3.19946,6.76304 -0.27175,1.46352 -0.6267,3.00976 -0.78879,3.43608 -0.33567,0.88287 -3.89048,5.86337 -4.18245,5.85985 -0.10547,-0.001 -1.04036,-0.26038 -2.07754,-0.5758 -1.8516,-0.5631 -1.91931,-0.56306 -3.73585,0.002 -2.31603,0.72082 -2.17143,0.73362 -2.901513,-0.2568 z m 6.656463,-5.14537 c -0.66889,-0.48911 -2.56037,-0.49006 -3.22689,-0.001 -0.43105,0.31587 -0.16397,0.37872 1.61512,0.38008 1.78408,10e-4 2.04683,-0.0603 1.61177,-0.37845 z m -7.225063,-15.89678 c -0.3821,-1.29513 -1.63982,-3.895017 -2.27469,-4.702127 -1.37184,-1.74401 -3.01553,-2.28358 -4.66586,-1.53163 -1.03146,0.46996 -0.97178,1.11539 0.2512,2.71709 1.2026,1.57499 2.8694,2.792427 4.91922,3.593027 1.90178,0.74277 2.01041,0.73809 1.77013,-0.0764 z m 13.098323,-0.2402 c 1.79496,-0.77569 3.30334,-1.991807 4.34086,-3.499787 1.08723,-1.58023 1.10862,-2.04138 0.11572,-2.49377 -2.27716,-1.03755 -4.03703,0.0471 -5.81397,3.58322 -1.84178,3.665157 -1.78395,3.767847 1.35739,2.410337 z m 8.2583,-13.607807 c -1.70992,-2.04231 -3.67449,-3.75525 -6.18629,-5.39395 -8.08948,-5.27758 -17.591583,-3.70936 -25.730313,4.24651 l -2.14735,2.0991 2.5735,-2.17843 c 5.22344,-4.42158 9.77811,-6.39558 14.835483,-6.42971 3.28503,-0.0222 5.79133,0.54812 8.60458,1.95791 2.37421,1.18978 5.34211,3.39571 7.4316,5.52362 0.91018,0.92692 1.70627,1.6853 1.76909,1.6853 0.0628,0 -0.45481,-0.67965 -1.1503,-1.51035 z m -47.536973,-9.59296 c -4.13695,-2.73924 -7.33343,-5.30115 -9.08821,-7.28403 -1.27714,-1.44313 -2.66589,-3.869131 -2.37907,-4.15595 0.0836,-0.0836 3.89007,0.9151 8.45883,2.21932 6.27303,1.79074 8.33095,2.49426 8.40534,2.87345 0.0946,0.48208 -0.20477,2.74677 -0.89592,6.77807 -0.17913,1.04477 -0.48001,1.888309 -0.6718,1.88342 -0.19106,-0.005 -1.91419,-1.04629 -3.82917,-2.31428 z m 58.416223,2.09606 c -0.01,-0.12489 -0.32796,-2.13449 -0.70759,-4.46578 -0.37963,-2.33129 -0.66251,-4.277261 -0.62863,-4.32439 0.12566,-0.1748 16.91086,-4.89458 17.01972,-4.78572 0.25017,0.25017 -0.81657,2.23816 -2.00342,3.73359 -1.64776,2.07619 -4.45603,4.38661 -9.1435,7.52258 -3.57908,2.39444 -4.49505,2.86281 -4.53658,2.31972 z m -31.24799,-5.95448 c -0.793673,-0.21348 -1.527783,-0.47289 -1.631353,-0.57646 -0.10357,-0.10357 -0.30088,-2.02741 -0.43846,-4.27519 -0.20208,-3.30151 -0.37925,-4.33588 -0.922,-5.3827 -0.49749,-0.95953 -0.67699,-1.84585 -0.69166,-3.41518 -0.0169,-1.80462 0.11351,-2.360151 0.87796,-3.74083 2.00006,-3.61233 5.825973,-5.10089 9.709413,-3.77767 4.46959,1.522949 6.55476,7.072379 4.2242,11.24221 -0.67721,1.211649 -0.80361,1.87064 -0.93864,4.89354 -0.21829,4.886609 -0.14227,4.687579 -1.94959,5.10476 -1.99994,0.461639 -6.398,0.422959 -8.23987,-0.0725 z m 6.7479,-10.17236 c 1.7758,-1.26448 2.2796,-4.07005 1.064,-5.92528 -2.16878,-3.30998 -7.40746,-2.0612 -7.93771,1.89216 -0.488303,3.64055 3.85013,6.1861 6.87371,4.03312 z m -34.734573,3.34548 c -10.70717,-2.69502 -13.05613,-3.56856 -13.68619,-5.08965 -0.19875,-0.47983 -0.54098,-1.64508 -0.7605,-2.58946 -0.33354,-1.43481 -0.33216,-1.71704 0.008,-1.71704 0.22414,0 2.89598,0.40996 5.93743,0.91103 7.52647,1.23996 14.12972,2.07743 18.22368,2.31125 l 3.41645,0.19513 -2.00821,2.00016 c -1.14111,1.13654 -2.43606,2.8172 -2.99914,3.89244 -0.54501,1.04076 -1.017,1.88375 -1.04886,1.87333 -0.0319,-0.0104 -3.21924,-0.81466 -7.08305,-1.78719 z m 56.160373,-0.0997 c -0.55698,-1.05342 -1.87837,-2.757 -3.00796,-3.87798 l -2.0146,-1.99925 3.4325,-0.19604 c 4.10894,-0.23468 10.70453,-1.07077 18.23972,-2.31217 3.04145,-0.50107 5.7176,-0.91103 5.947,-0.91103 0.34344,0 0.32402,0.36181 -0.10998,2.04906 -0.28989,1.12699 -0.6796,2.33406 -0.86603,2.6824 -0.62098,1.16033 -4.90307,2.60082 -14.74444,4.96004 -2.83085,0.67862 -5.31256,1.29007 -5.51492,1.35878 -0.20682,0.0702 -0.80287,-0.69769 -1.36129,-1.75381 z m -46.107613,-8.40927 c -6.77642,-0.34649 -17.24673,-1.47047 -23.91841,-2.56764 -4.18057,-0.68749 -4.00862,-0.60648 -4.8621,-2.29075 -0.42887,-0.84633 -0.73344,-1.58511 -0.67682,-1.64173 0.14462,-0.14461 36.49081,0.45787 39.48088,0.65445 l 2.45443,0.16136 -0.70635,1.71734 c -0.38849,0.94453 -0.71144,1.98982 -0.71767,2.32286 -0.006,0.33304 -0.0935,0.91207 -0.19388,1.28675 -0.17517,0.65365 -0.30669,0.67936 -3.25058,0.63539 -1.68742,-0.0252 -5.11169,-0.15032 -7.6095,-0.27803 z m 33.379813,0.15627 c -0.12489,-0.12985 -0.23031,-0.72431 -0.23426,-1.32101 -0.004,-0.59669 -0.32505,-1.8577 -0.71354,-2.80223 l -0.70634,-1.71734 2.45443,-0.16136 c 2.99007,-0.19658 39.33626,-0.79906 39.48088,-0.65445 0.24959,0.2496 -1.4927,3.16154 -1.97519,3.30119 -0.76111,0.22029 -8.04633,1.30922 -12.34391,1.84506 -8.53951,1.06475 -25.4447,2.04808 -25.96207,1.51014 z"
       id="path4653"
       inkscape:connector-curvature="0" />
  </g>
</svg>
