<?xml version="1.0" encoding="UTF-8" standalone="no"?>
<svg
   xmlns:dc="http://purl.org/dc/elements/1.1/"
   xmlns:cc="http://creativecommons.org/ns#"
   xmlns:rdf="http://www.w3.org/1999/02/22-rdf-syntax-ns#"
   xmlns:svg="http://www.w3.org/2000/svg"
   xmlns="http://www.w3.org/2000/svg"
   xmlns:sodipodi="http://sodipodi.sourceforge.net/DTD/sodipodi-0.dtd"
   xmlns:inkscape="http://www.inkscape.org/namespaces/inkscape"
   width="210mm"
   height="297mm"
   viewBox="0 0 210 297"
   version="1.1"
   id="svg8"
   sodipodi:docname="white_fleyers.svg"
   inkscape:version="1.0.1 (3bc2e813f5, 2020-09-07)">
  <defs
     id="defs2" />
  <sodipodi:namedview
     id="base"
     pagecolor="#ffffff"
     bordercolor="#666666"
     borderopacity="1.0"
     inkscape:pageopacity="0.0"
     inkscape:pageshadow="2"
     inkscape:zoom="0.32"
     inkscape:cx="577.27661"
     inkscape:cy="1126.9185"
     inkscape:document-units="mm"
     inkscape:current-layer="layer1"
     showgrid="false"
     inkscape:window-width="1920"
     inkscape:window-height="1001"
     inkscape:window-x="-9"
     inkscape:window-y="-9"
     inkscape:window-maximized="1"
     inkscape:document-rotation="0" />
  <metadata
     id="metadata5">
    <rdf:RDF>
      <cc:Work
         rdf:about="">
        <dc:format>image/svg+xml</dc:format>
        <dc:type
           rdf:resource="http://purl.org/dc/dcmitype/StillImage" />
        <dc:title />
      </cc:Work>
    </rdf:RDF>
  </metadata>
  <g
     inkscape:label="Layer 1"
     inkscape:groupmode="layer"
     id="layer1">
    <path
       style="fill:#ac2b1f;stroke-width:0.352778"
       d="m 101.93967,161.76123 c -1.30255,-6.08813 -2.365523,-11.30745 -2.362153,-11.59849 0.004,-0.29105 0.866173,-2.03593 1.917353,-3.87754 1.05118,-1.8416 1.86507,-3.39453 1.80864,-3.45096 -0.0564,-0.0564 -1.18968,0.29198 -2.51834,0.77426 -1.328653,0.48227 -2.445568,0.84458 -2.482048,0.80513 -0.0833,-0.0901 -2.95815,-13.40323 -2.95815,-13.69902 0,-0.11954 1.59089,-1.53068 3.53531,-3.13587 1.944418,-1.60519 3.472548,-2.98129 3.395828,-3.05801 -0.0767,-0.0767 -1.86604,0.009 -3.976278,0.19135 -2.11024,0.18195 -3.94459,0.2281 -4.07633,0.10255 -0.27334,-0.26051 -3.07734,-13.21165 -2.90387,-13.4124 0.12924,-0.14957 23.009908,13.32203 23.229158,13.67677 0.12886,0.2085 -1.29971,7.37745 -1.79066,8.98608 -0.21115,0.69188 -0.64143,0.69197 -7.00622,0.002 l -1.76388,-0.19132 3.88055,2.25051 c 3.44671,1.99891 3.86704,2.34734 3.75963,3.1166 -0.24346,1.74364 -6.77784,32.2838 -7.04479,32.9257 -0.1842,0.44292 -1.06011,-3.00504 -2.64375,-10.40695 z m -20.176638,3.67693 c -8.3432,-2.63463 -15.21801,-4.82995 -15.27736,-4.87848 -0.22587,-0.18467 4.52446,-7.22194 4.87499,-7.22194 0.20266,0 5.88047,3.5958 12.61736,7.99066 10.92808,7.12903 13.66907,8.99309 13.11824,8.92134 -0.0901,-0.0117 -6.99004,-2.17694 -15.33323,-4.81158 z m 31.239188,4.34593 c 0.85507,-0.79589 24.96451,-16.44635 25.33552,-16.44635 0.33375,0 5.13208,7.04896 4.91526,7.22075 -0.0876,0.0694 -17.74517,5.64401 -28.13411,8.88211 -1.67369,0.52167 -2.44204,0.64636 -2.11667,0.34349 z M 87.852982,158.2481 c -5.73837,-4.52529 -6.22138,-4.99194 -5.82458,-5.62732 0.39157,-0.62699 -0.0657,-1.19201 -4.81193,-5.94621 -3.21265,-3.21801 -5.14659,-5.41199 -4.99159,-5.66278 0.14434,-0.23355 -1.2811,-2.84228 -3.3185,-6.07325 -2.45918,-3.89984 -3.5065,-5.86874 -3.36272,-6.32175 0.11485,-0.36185 -0.78328,-3.92857 -1.99583,-7.92605 -1.82726,-6.02403 -2.11882,-7.32117 -1.70332,-7.57796 0.58558,-0.36191 3.14138,-0.83504 3.35529,-0.62113 0.0804,0.0804 0.33881,3.59906 0.57426,7.81926 0.39786,7.13099 0.47308,7.659 1.06478,7.47357 0.35018,-0.10973 0.92879,-0.29077 1.28581,-0.4023 0.56487,-0.17645 0.93606,0.62484 2.85981,6.17361 1.21588,3.50702 2.30033,6.37639 2.4099,6.37639 0.10957,0 0.49448,-0.2672 0.85534,-0.59378 0.87586,-0.79264 0.87433,-0.79453 5.05069,6.23822 1.90116,3.20146 3.50685,5.88301 3.56819,5.95901 0.0613,0.076 0.39528,-0.21225 0.74208,-0.64053 l 0.63056,-0.77871 2.48329,3.10998 c 6.6312,8.30463 7.92512,9.98791 7.66596,9.97268 -0.15412,-0.009 -3.09599,-2.23699 -6.53749,-4.95095 z m 28.540448,3.2728 c 0.74411,-0.93203 3.09638,-3.88037 5.22726,-6.55185 3.84181,-4.81648 3.87947,-4.85089 4.4873,-4.10024 l 0.61298,0.75699 0.72004,-1.17251 c 0.39602,-0.64487 2.10736,-3.51031 3.80297,-6.36764 1.69561,-2.85733 3.26193,-5.19889 3.48071,-5.20347 0.21878,-0.005 0.5954,0.22979 0.83695,0.52083 0.24154,0.29105 0.55848,0.52917 0.7043,0.52917 0.14582,0 1.26667,-2.92593 2.49078,-6.50207 l 2.22566,-6.50207 1.03433,0.53487 c 0.56888,0.29418 1.15144,0.40229 1.29458,0.24026 0.14314,-0.16202 0.44227,-3.61499 0.66474,-7.67325 0.22247,-4.05825 0.47329,-7.44746 0.55739,-7.53155 0.21539,-0.2154 2.76217,0.24368 3.34288,0.60258 0.3899,0.24097 0.0628,1.68772 -1.70917,7.55957 -1.2341,4.08953 -2.098,7.55566 -1.97766,7.93482 0.15013,0.47301 -0.83776,2.33739 -3.32136,6.26821 -1.9456,3.07932 -3.45839,5.83647 -3.36457,6.1321 0.1101,0.34687 -1.69917,2.40366 -5.10794,5.80674 -4.84259,4.83452 -5.23381,5.3189 -4.73826,5.86648 0.49699,0.54917 0.031,0.99429 -5.83267,5.57175 -3.50505,2.73619 -6.46537,4.97489 -6.57849,4.97489 -0.11312,0 0.40314,-0.76257 1.14725,-1.69461 z m -47.140628,-11.24843 -13.92133,-8.32856 3.16161,-2.93547 c 1.73889,-1.6145 3.26418,-2.94027 3.38954,-2.94614 0.12536,-0.006 4.39945,4.39464 9.49798,9.77891 5.09853,5.38427 9.91058,10.46427 10.69344,11.28889 0.78287,0.82461 1.35065,1.49292 1.26174,1.48511 -0.0889,-0.008 -6.42624,-3.76203 -14.08298,-8.34274 z m 58.220398,7.09894 c 3.8867,-4.28045 20.18323,-21.31759 20.37954,-21.30571 0.12788,0.008 1.65156,1.33448 3.38596,2.94831 l 3.15345,2.93422 -13.20762,7.868 c -7.26419,4.32741 -13.60449,8.10988 -14.08956,8.40551 -0.70975,0.43257 -0.63591,0.26655 0.37823,-0.85033 z M 58.628962,130.17815 c -5.90293,-6.33484 -10.78324,-11.64615 -10.84514,-11.80288 -0.0619,-0.15675 1.634,-1.16091 3.76866,-2.23148 l 3.88121,-1.9465 1.56473,2.90148 c 2.63083,4.87834 12.65555,24.5973 12.50476,24.5973 -0.0779,0 -4.97128,-5.18306 -10.87422,-11.51792 z m 81.567328,11.32096 c 0.20392,-0.59556 12.31284,-24.16484 13.25993,-25.80968 l 0.85712,-1.48859 3.85331,1.93251 c 2.11933,1.06288 3.85332,2.02199 3.85332,2.13135 0,0.19357 -17.76714,19.37972 -20.55499,22.19666 -0.76809,0.77611 -1.339,1.24309 -1.26869,1.03775 z M 68.413022,117.32536 c -0.93959,-2.72919 -1.64943,-5.02105 -1.57743,-5.09306 0.1393,-0.13928 7.69259,1.82661 7.92991,2.06393 0.12335,0.12335 -4.38011,8.00156 -4.56974,7.99416 -0.0409,-0.002 -0.84315,-2.23586 -1.78274,-4.96503 z m 68.596638,0.86156 c -1.19476,-2.06449 -2.10992,-3.81598 -2.03368,-3.89223 0.21404,-0.21404 7.78288,-2.20787 7.90767,-2.08309 0.20046,0.20047 -3.16464,9.72892 -3.4359,9.72892 -0.14619,0 -1.24333,-1.68912 -2.43809,-3.7536 z m 14.95379,-13.87118 c 1.39294,-8.352065 2.59831,-15.232605 2.6786,-15.290085 0.0803,-0.0575 2.07758,0.20101 4.43843,0.57444 l 4.29245,0.67895 -1.15699,2.51337 c -3.7038,8.045925 -12.30282,26.192385 -12.52395,26.429205 -0.14364,0.15384 0.87852,-6.5538 2.27146,-14.90588 z m -97.514258,3.28028 c -2.99289,-6.37156 -6.04951,-12.840755 -6.79248,-14.375985 -0.74298,-1.53522 -1.3105,-2.82928 -1.26117,-2.8757 0.0493,-0.0464 2.03811,-0.39065 4.41949,-0.76497 l 4.32979,-0.68059 0.16717,0.73406 c 0.51841,2.27648 4.7654,28.637545 4.68049,29.051805 -0.0559,0.27283 -2.5504,-4.71704 -5.54329,-11.08862 z m 48.304108,-0.8453 c -7.858118,-4.44143 -14.287498,-8.219465 -14.287498,-8.395635 0,-0.3728 16.063778,-21.68269 16.214408,-21.50971 0.0555,0.0638 3.55369,4.64035 7.77364,10.17015 4.21996,5.52979 7.80664,10.22295 7.9704,10.42925 0.3827,0.4821 -0.0136,2.976295 -0.4729,2.976295 -0.42036,0 -4.43781,-2.788115 -10.75985,-7.467345 -2.57087,-1.90281 -4.67431,-3.39777 -4.67431,-3.32212 0,0.0756 2.41641,2.25641 5.36981,4.84614 9.25978,8.119605 9.70495,8.578085 9.52427,9.809195 -0.15723,1.07126 -0.16131,1.07302 -2.48665,1.07302 h -2.32916 l 1.88578,1.90951 1.88579,1.9095 -0.4442,2.41202 c -0.24431,1.32662 -0.54271,2.59721 -0.66311,2.82355 -0.14263,0.26811 -5.19792,-2.40263 -14.50642,-7.66382 z m -40.525568,3.33168 c 5.74215,-9.9429 12.20045,-20.203455 12.62109,-20.051605 0.62965,0.2273 4.59717,3.09897 4.61087,3.33732 0.006,0.0984 -4.05779,4.22594 -9.02987,9.172225 -6.05667,6.02522 -8.76357,8.5143 -8.20209,7.54206 z m 76.875078,-7.70764 c -4.93748,-4.940335 -8.90506,-9.052835 -8.81685,-9.138895 0.58473,-0.5704 4.62182,-3.39543 4.8357,-3.38387 0.14497,0.008 2.80359,4.24102 5.90803,9.40708 3.10445,5.166055 6.01063,10.001505 6.45819,10.745465 0.44756,0.74395 0.76389,1.35265 0.70296,1.35265 -0.0609,0 -4.15054,-4.04209 -9.08803,-8.98243 z m -72.844368,7.62925 c 0.78215,-0.68812 7.83246,-4.99683 8.1763,-4.99683 0.20709,0 1.17624,1.07158 2.15365,2.38125 l 1.77711,2.38125 -1.47624,0.23844 c -2.14707,0.34678 -11.02576,0.34334 -10.63082,-0.004 z m 66.362718,-0.0198 -1.35298,-0.21452 1.80577,-2.38125 c 0.99318,-1.30969 1.96194,-2.38125 2.15281,-2.38125 0.32836,0 7.54129,4.36504 8.25474,4.9955 0.37515,0.33152 -8.75085,0.31599 -10.86034,-0.0185 z m -72.099558,-3.85444 c 0.10868,-0.44972 1.57867,-7.196595 3.26664,-14.993045 1.68796,-7.79646 3.13399,-14.24676 3.21339,-14.334 0.24069,-0.26443 8.58779,1.51682 8.58779,1.83261 0,0.38783 -14.46689,27.503105 -14.91722,27.959335 -0.22985,0.23287 -0.28104,0.0748 -0.1506,-0.4649 z m 88.072268,-0.12224 c -0.23676,-0.45318 -3.58337,-6.722335 -7.43691,-13.931445 -3.85354,-7.20912 -7.00644,-13.24857 -7.00644,-13.42099 0,-0.32802 8.34139,-2.12867 8.58093,-1.85237 0.21702,0.25033 6.54794,29.773735 6.41344,29.908235 -0.0663,0.0663 -0.31425,-0.25025 -0.55102,-0.70343 z M 57.923822,97.922225 c -0.0147,-0.66293 -0.30176,-7.87282 -0.63795,-16.02199 -0.33618,-8.14917 -0.56893,-14.87617 -0.51721,-14.94891 0.13024,-0.18316 7.99758,1.75672 8.3311,2.05424 0.23855,0.2128 -6.62417,29.59692 -7.00025,29.973 -0.0819,0.0819 -0.161,-0.39341 -0.17569,-1.05634 z m 93.563088,1.02935 c -0.0277,-0.12913 -1.64438,-6.86146 -3.59274,-14.96073 -1.94835,-8.09928 -3.41679,-14.83753 -3.26319,-14.97389 0.42212,-0.37474 7.9251,-2.16625 8.14625,-1.9451 0.21947,0.21946 -0.59214,24.11789 -0.9828,28.93949 -0.14149,1.74625 -0.27987,3.06935 -0.30752,2.94023 z m -67.374228,-5.54176 c -1.00559,-1.38256 -1.74324,-2.51375 -1.63922,-2.51375 0.10402,0 1.29997,0.55942 2.65767,1.24314 2.61734,1.31808 2.63014,1.34872 1.30438,3.1227 -0.46136,0.61735 -0.61694,0.49329 -2.32283,-1.85209 z m 37.237518,1.40057 c -0.33288,-0.56351 -0.60523,-1.11714 -0.60523,-1.23028 0,-0.11315 1.12664,-0.77309 2.50365,-1.46654 1.37701,-0.69345 2.38045,-1.05263 2.22987,-0.79819 -0.75583,1.27717 -3.13463,4.51958 -3.31579,4.51958 -0.114,0 -0.47963,-0.46105 -0.8125,-1.02457 z m -36.506118,-8.59414 c -2.17965,-2.18585 -3.963,-4.08018 -3.963,-4.20961 0,-0.12944 2.10344,0.71975 4.67431,1.8871 2.57087,1.16734 5.03454,2.26514 5.47484,2.43957 l 0.80053,0.31712 -1.15331,1.76371 c -0.63432,0.97003 -1.31465,1.76655 -1.51184,1.77004 -0.1972,0.003 -2.14188,-1.78208 -4.32153,-3.96793 z m 32.743168,2.29958 c -0.5733,-0.92108 -0.93077,-1.78036 -0.7944,-1.90952 0.2305,-0.2183 5.60343,-2.68244 9.24379,-4.23938 1.5186,-0.64949 1.40401,-0.49445 -2.64032,3.57231 -2.3253,2.3382 -4.34907,4.25128 -4.49727,4.25128 -0.1482,0 -0.73851,-0.75361 -1.3118,-1.67469 z m -25.625948,-7.3827 c -0.73223,-1.32434 -2.47982,-4.47154 -3.88354,-6.99378 -1.40371,-2.52224 -2.50579,-4.63231 -2.44907,-4.68904 0.1239,-0.12389 11.75866,7.98738 11.98699,8.35682 0.1172,0.18965 -2.8053,4.08339 -4.21746,5.61905 -0.0581,0.0632 -0.70469,-0.96872 -1.43692,-2.29305 z m 20.722368,-0.25548 c -1.19309,-1.44237 -2.16723,-2.75485 -2.16475,-2.91662 0.005,-0.32148 11.74119,-8.59418 11.92909,-8.40862 0.0891,0.088 -7.14987,13.43613 -7.51293,13.85334 -0.0452,0.0519 -1.05832,-1.08572 -2.25141,-2.5281 z m -11.92024,-8.76699 c 0.1138,-0.82462 0.70259,-5.78556 1.30844,-11.02431 0.60584,-5.23875 1.18497,-9.76312 1.28695,-10.05417 0.10199,-0.29104 1.41227,4.31271 2.91176,10.23056 1.49948,5.91785 2.84034,11.11691 2.97969,11.55347 l 0.25336,0.79375 h -4.47356 -4.47355 z"
       id="path4647"
       inkscape:connector-curvature="0" />
  </g>
</svg>
