<?xml version="1.0" encoding="UTF-8" standalone="no"?>
<svg
   xmlns:dc="http://purl.org/dc/elements/1.1/"
   xmlns:cc="http://creativecommons.org/ns#"
   xmlns:rdf="http://www.w3.org/1999/02/22-rdf-syntax-ns#"
   xmlns:svg="http://www.w3.org/2000/svg"
   xmlns="http://www.w3.org/2000/svg"
   xmlns:sodipodi="http://sodipodi.sourceforge.net/DTD/sodipodi-0.dtd"
   xmlns:inkscape="http://www.inkscape.org/namespaces/inkscape"
   width="210mm"
   height="297mm"
   viewBox="0 0 210 297"
   version="1.1"
   id="svg8"
   sodipodi:docname="lightning_hoods.svg"
   inkscape:version="1.0.1 (3bc2e813f5, 2020-09-07)">
  <defs
     id="defs2" />
  <sodipodi:namedview
     id="base"
     pagecolor="#ffffff"
     bordercolor="#666666"
     borderopacity="1.0"
     inkscape:pageopacity="0.0"
     inkscape:pageshadow="2"
     inkscape:zoom="0.32"
     inkscape:cx="577.27661"
     inkscape:cy="1126.9185"
     inkscape:document-units="mm"
     inkscape:current-layer="layer1"
     showgrid="false"
     inkscape:window-width="1920"
     inkscape:window-height="1001"
     inkscape:window-x="-9"
     inkscape:window-y="-9"
     inkscape:window-maximized="1"
     inkscape:document-rotation="0" />
  <metadata
     id="metadata5">
    <rdf:RDF>
      <cc:Work
         rdf:about="">
        <dc:format>image/svg+xml</dc:format>
        <dc:type
           rdf:resource="http://purl.org/dc/dcmitype/StillImage" />
        <dc:title />
      </cc:Work>
    </rdf:RDF>
  </metadata>
  <g
     inkscape:label="Layer 1"
     inkscape:groupmode="layer"
     id="layer1">
    <path
       style="fill:#71c700;stroke-width:0.352778"
       d="m 93.843299,167.30803 c -2.591859,-2.44368 -4.748043,-4.5564 -4.79152,-4.69494 -0.04348,-0.13854 1.343061,-1.09071 3.0812,-2.11593 3.047743,-1.79767 3.194996,-1.84524 4.135999,-1.33582 2.001523,1.08351 2.004754,1.10635 0.298301,2.1064 -0.88859,0.52075 -1.615616,1.08586 -1.615616,1.25582 0,0.16995 0.872882,2.25371 1.939741,4.63057 1.066857,2.37687 1.87778,4.38353 1.802053,4.45926 -0.07573,0.0757 -2.2583,-1.86169 -4.850158,-4.30536 z m 6.441171,4.15422 c 0.0744,-0.19441 0.99433,-2.2881 2.04431,-4.65264 1.13377,-2.5532 1.77848,-4.4242 1.5875,-4.60703 -0.17686,-0.16933 -4.726874,-2.87987 -10.111145,-6.02344 -5.384271,-3.14356 -9.789583,-5.83056 -9.789583,-5.9711 0,-0.14054 3.4925,-1.89116 7.761111,-3.89026 l 7.761111,-3.63475 7.761116,3.63475 c 4.26861,1.9991 7.76111,3.7499 7.76111,3.89065 0,0.27731 -10.84663,6.68471 -11.31608,6.68471 -0.29225,0 -2.79503,-1.40756 -2.79503,-1.57191 0,-0.0501 1.66687,-1.09649 3.70416,-2.32528 2.03729,-1.22878 3.70038,-2.32304 3.69575,-2.43167 -0.005,-0.10864 -1.989,-1.04477 -4.40972,-2.08028 l -4.401306,-1.88275 -4.401305,1.88275 c -2.420719,1.03551 -4.405094,1.97952 -4.409722,2.0978 -0.0046,0.11827 4.31752,2.80144 9.604773,5.96259 5.28726,3.16115 9.67903,5.8025 9.75949,5.86967 0.16032,0.13383 -8.11764,8.11088 -9.24376,8.90774 -0.38391,0.27166 -0.63716,0.33486 -0.56278,0.14045 z M 83.839163,143.06535 C 79.83051,142.073 73.51489,140.08566 69.962571,138.69878 c -2.199348,-0.85866 -4.119548,-1.5612 -4.26711,-1.5612 -0.147562,0 -0.05341,1.13646 0.209236,2.52546 0.262643,1.38901 0.397894,2.6051 0.30056,2.70243 -0.336132,0.33613 -4.951168,-1.69937 -7.228429,-3.18816 -7.776114,-5.08375 -12.714674,-14.2504 -14.619184,-27.13525 -0.779186,-5.27154 -1.045022,-10.8109 -0.747407,-15.574085 l 0.259617,-4.15504 1.376019,-0.70199 c 0.75681,-0.3861 2.498488,-1.42812 3.870394,-2.3156 1.371907,-0.88748 2.558535,-1.54944 2.636951,-1.47103 0.07842,0.0784 -0.0971,1.95879 -0.390047,4.17862 -1.236049,9.366345 -1.238363,19.949265 -0.0058,26.527025 1.036247,5.5301 3.126428,10.53277 5.800906,13.88396 1.419328,1.77846 5.152661,4.67365 5.534398,4.29191 0.108009,-0.10801 0.06374,-1.88067 -0.09838,-3.93926 -0.162117,-2.05858 -0.197981,-3.74287 -0.0797,-3.74287 0.118284,0 0.437167,0.415 0.708629,0.92223 1.676434,3.13245 10.076545,8.40833 19.028435,11.95125 4.27186,1.69069 4.562641,1.90466 1.5875,1.16817 z m 32.985437,0.31366 c 0.0966,-0.0913 1.95011,-0.89013 4.11888,-1.77527 8.8609,-3.6164 15.24279,-7.56874 18.01177,-11.1548 l 1.2367,-1.60163 -0.24999,3.99185 -0.24998,3.99185 1.36823,-0.69802 c 4.48323,-2.28717 8.21052,-8.60451 10.03866,-17.0144 0.713,-3.27993 0.80074,-4.66697 0.81284,-12.84906 0.0105,-7.094905 -0.13361,-10.196895 -0.63623,-13.696515 -0.35738,-2.48836 -0.57672,-4.59735 -0.48742,-4.68666 0.0893,-0.0893 1.85201,0.89451 3.91712,2.18626 2.80439,1.75418 3.81557,2.58324 3.99509,3.27555 0.39905,1.53892 0.25869,13.041865 -0.20286,16.625525 -1.84577,14.33111 -6.68389,23.77306 -14.94587,29.16792 -2.22685,1.45408 -6.88001,3.49734 -7.21093,3.16641 -0.0819,-0.0819 0.0354,-1.20809 0.26087,-2.50255 0.22542,-1.29447 0.33847,-2.42497 0.25121,-2.51222 -0.0873,-0.0873 -2.26366,0.64436 -4.83644,1.62582 -4.68246,1.78626 -15.8239,5.05715 -15.19165,4.45994 z m -29.608645,-3.239 c -9.387898,-2.12911 -18.040686,-10.36365 -24.395187,-23.216 l -2.057883,-4.1622 -0.778087,2.56169 -0.778086,2.56168 -0.441912,-1.27643 c -1.304259,-3.76727 -1.724178,-7.17388 -1.709327,-13.867 0.01303,-5.873615 0.130895,-7.251175 0.952773,-11.135845 0.515846,-2.43818 1.47352,-5.97037 2.128164,-7.84931 0.654644,-1.87893 1.144453,-3.41624 1.088464,-3.41624 -0.05599,0 -1.095014,1.65637 -2.308944,3.68083 -1.213929,2.02446 -2.333747,3.60259 -2.488483,3.50696 -0.501341,-0.30984 -0.305584,-8.50928 0.270924,-11.3478 1.362375,-6.70787 4.743267,-14.93189 9.31358,-22.65527 l 2.502896,-4.22965 1.312158,0.55729 c 0.721687,0.3065 2.290671,0.95302 3.486631,1.4367 l 2.174472,0.87941 -2.912144,2.91215 c -3.2484,3.2484 -6.449825,7.86281 -8.836405,12.73644 -1.639507,3.34805 -4.065673,9.68519 -4.065673,10.61955 0,0.34414 0.69939,-0.0387 1.987196,-1.08772 1.092958,-0.89032 2.039927,-1.56603 2.104374,-1.50158 0.06445,0.0645 -0.263066,1.06198 -0.727806,2.21674 -2.86542,7.11983 -5.52864,23.628785 -4.450448,27.587765 0.445978,1.63757 0.746335,1.75291 2.575038,0.98883 l 1.221743,-0.51048 0.611058,2.8436 c 2.070886,9.63698 7.551692,19.70333 12.970024,23.82145 2.439765,1.85431 3.817154,2.72215 3.817154,2.40504 0,-0.13983 -0.247022,-1.20753 -0.548937,-2.37266 -0.301917,-1.16513 -0.500355,-2.16522 -0.440972,-2.22244 0.05938,-0.0572 1.854214,0.99429 3.98852,2.33667 4.311671,2.71184 9.852455,5.63669 11.958866,6.31279 1.161317,0.37275 1.279913,0.49502 0.761517,0.78513 -1.05562,0.59075 -5.865244,0.64876 -8.285258,0.0999 z m 17.084315,0.37634 c -0.19402,-0.0781 -0.8189,-0.24575 -1.3886,-0.3725 -0.9631,-0.21428 -0.83839,-0.31127 1.77628,-1.38156 2.93758,-1.20247 9.10313,-4.62357 12.5769,-6.97859 2.29099,-1.55315 2.37709,-1.45516 1.52706,1.73791 -0.27118,1.01865 -0.40852,1.85209 -0.3052,1.85209 0.10333,0 1.17547,-0.70476 2.38258,-1.56613 4.92957,-3.51766 9.16283,-9.52718 11.94336,-16.95471 1.09941,-2.93682 2.70631,-8.84841 2.70756,-9.96082 l 0.001,-0.78861 1.74119,0.68631 1.74119,0.68632 0.42566,-1.28981 c 1.27437,-3.86134 -1.36047,-20.834395 -4.40395,-28.369255 -0.45841,-1.13451 -0.76172,-2.06275 -0.67418,-2.06275 0.0875,0 1.04271,0.71972 2.12258,1.59937 1.07987,0.87966 2.02527,1.53752 2.10089,1.46191 0.27365,-0.27369 -2.09194,-6.50328 -3.94527,-10.38944 -2.62656,-5.50753 -5.37206,-9.57612 -8.83782,-13.09689 -1.62238,-1.64812 -2.87459,-3.07178 -2.7827,-3.16367 0.0919,-0.0919 1.60199,-0.76788 3.35576,-1.50218 l 3.18867,-1.3351 1.16683,1.83591 c 6.6368,10.4425 10.61933,20.87167 11.35865,29.74521 0.23938,2.87312 -0.0506,6.85072 -0.49767,6.8262 -0.13157,-0.007 -1.24493,-1.75347 -2.47414,-3.88055 -1.2292,-2.12709 -2.27762,-3.86744 -2.32979,-3.86744 -0.0522,0 0.50946,1.78594 1.24807,3.96875 2.1497,6.3531 2.82606,10.18307 3.0371,17.197925 0.18799,6.24896 -0.061,9.14528 -1.18271,13.75833 -0.30667,1.26118 -0.67287,2.41832 -0.81379,2.57141 -0.14091,0.1531 -0.56939,-0.87596 -0.95219,-2.28679 l -0.69599,-2.56516 -1.77287,3.69791 c -7.13417,14.88063 -17.26169,23.62688 -27.99317,24.17522 -1.64923,0.0843 -3.15736,0.0893 -3.35139,0.0112 z M 89.337515,128.50277 c -6.798081,-5.21591 -12.818995,-11.09185 -16.884851,-16.47828 -1.966646,-2.60541 -5.017667,-8.41374 -5.017667,-9.5523 0,-0.39985 0.469623,-1.45885 1.043606,-2.35333 3.792515,-5.910125 8.127659,-19.105545 9.751211,-29.680985 0.592726,-3.86087 0.619544,-3.92888 1.87786,-4.76159 1.998038,-1.32224 8.164488,-3.49848 14.012545,-4.94525 l 5.342163,-1.32161 4.182838,0.98351 c 5.74722,1.35134 11.11815,3.14937 14.05823,4.70627 l 2.46706,1.30643 0.44156,3.1245 c 1.01734,7.19897 3.55934,16.5822 6.32133,23.33383 1.57789,3.85715 2.2272,5.12629 3.9339,7.689235 0.88919,1.3353 0.89008,1.34472 0.30278,3.20786 -0.7377,2.34024 -3.4903,6.95085 -5.99017,10.03348 -3.70473,4.56839 -11.60115,11.93063 -17.17144,16.00983 l -1.58347,1.1596 0.8332,-1.41111 c 3.14208,-5.32138 3.03647,-5.01446 3.07659,-8.94092 l 0.0373,-3.64926 2.00019,-0.81294 c 1.1001,-0.44711 2.21724,-0.99307 2.48252,-1.21324 0.26529,-0.22017 0.91752,-1.73809 1.4494,-3.37316 1.46702,-4.5098 1.22372,-6.55113 -1.68208,-14.113265 -2.62785,-6.83876 -3.95553,-10.89201 -5.54669,-16.93333 -0.88325,-3.35353 -1.43653,-4.7099 -2.66221,-6.52639 -2.09407,-3.10347 -6.08105,-7.40834 -6.861282,-7.40834 -0.768346,0 -4.596338,3.99181 -6.802232,7.09333 -1.360086,1.9123 -1.796193,2.97957 -2.867586,7.01779 -1.639761,6.18045 -2.908459,10.04899 -5.463625,16.65981 -3.250709,8.410355 -3.365669,9.712175 -1.348154,15.266585 0.729216,2.0076 0.881718,2.17398 2.959615,3.2291 1.204933,0.61184 2.34611,1.16747 2.53595,1.23472 0.223418,0.0791 0.216545,0.72161 -0.01947,1.82142 -0.688817,3.20956 0.116624,5.75278 3.51192,11.08906 0.27777,0.43657 0.447093,0.7921 0.376269,0.79009 -0.07082,-0.002 -1.464507,-1.02854 -3.097082,-2.28115 z"
       id="path4651"
       inkscape:connector-curvature="0" />
  </g>
</svg>
