<?xml version="1.0" encoding="UTF-8" standalone="no"?>
<svg
   xmlns:dc="http://purl.org/dc/elements/1.1/"
   xmlns:cc="http://creativecommons.org/ns#"
   xmlns:rdf="http://www.w3.org/1999/02/22-rdf-syntax-ns#"
   xmlns:svg="http://www.w3.org/2000/svg"
   xmlns="http://www.w3.org/2000/svg"
   xmlns:sodipodi="http://sodipodi.sourceforge.net/DTD/sodipodi-0.dtd"
   xmlns:inkscape="http://www.inkscape.org/namespaces/inkscape"
   width="210mm"
   height="297mm"
   viewBox="0 0 210 297"
   version="1.1"
   id="svg8"
   sodipodi:docname="onyx_watch.svg"
   inkscape:version="1.0.1 (3bc2e813f5, 2020-09-07)">
  <defs
     id="defs2" />
  <sodipodi:namedview
     id="base"
     pagecolor="#ffffff"
     bordercolor="#666666"
     borderopacity="1.0"
     inkscape:pageopacity="0.0"
     inkscape:pageshadow="2"
     inkscape:zoom="0.32"
     inkscape:cx="1350.0404"
     inkscape:cy="1126.9185"
     inkscape:document-units="mm"
     inkscape:current-layer="layer1"
     showgrid="false"
     inkscape:window-width="1920"
     inkscape:window-height="1001"
     inkscape:window-x="-9"
     inkscape:window-y="-9"
     inkscape:window-maximized="1"
     inkscape:document-rotation="0" />
  <metadata
     id="metadata5">
    <rdf:RDF>
      <cc:Work
         rdf:about="">
        <dc:format>image/svg+xml</dc:format>
        <dc:type
           rdf:resource="http://purl.org/dc/dcmitype/StillImage" />
        <dc:title />
      </cc:Work>
    </rdf:RDF>
  </metadata>
  <g
     inkscape:label="Layer 1"
     inkscape:groupmode="layer"
     id="layer1">
    <path
       style="fill:#00741c;stroke-width:0.352778;fill-opacity:1"
       d="m 86.547377,166.4549 -12.34722,-3.94225 -0.0923,-13.83847 -0.0923,-13.83847 h 12.52771 12.527707 v 17.81528 c 0,9.7984 -0.0397,17.79973 -0.0882,17.78072 -0.0485,-0.019 -5.644457,-1.80857 -12.435427,-3.97681 z m 21.343063,-13.84637 v -17.77282 h 12.5277 12.52771 l -0.0923,13.82922 -0.0923,13.82922 -3.52778,1.12953 c -1.94028,0.62123 -7.53621,2.39585 -12.43542,3.94359 l -8.90763,2.81408 z m -44.365963,-1.06783 -6.44235,-9.38266 0.0924,-13.45075 0.0923,-13.45074 6.4382,9.31693 6.43819,9.31694 v 13.52543 c 0,7.43898 -0.0397,13.52139 -0.0882,13.51646 -0.0485,-0.005 -2.98725,-4.23115 -6.53054,-9.39161 z m 73.293733,-4.06153 v -13.57969 l 6.4382,-9.32147 6.43819,-9.32146 0.0924,13.46454 0.0924,13.46455 -6.40018,9.28962 c -3.5201,5.10929 -6.45885,9.35576 -6.53055,9.43661 -0.0717,0.0808 -0.13038,-5.96387 -0.13038,-13.4327 z m -71.702083,-29.62056 -8.73125,-13.78473 v -9.31353 -9.31352 h 9.34861 9.34861 v 7.39804 7.39804 l 2.91042,4.58717 2.91042,4.58717 9.08402,0.009 9.084037,0.009 v 11.1125 11.1125 l -12.611807,-0.009 -12.61181,-0.009 -8.73125,-13.78473 z m 42.774313,2.6896 v -11.1125 l 9.08402,-0.009 9.08403,-0.009 2.91042,-4.58717 2.91041,-4.58717 V 92.84525 85.4472 h 9.34861 9.34862 v 9.32229 9.32229 l -8.73125,13.77559 -8.73125,13.77559 -12.61181,0.009 -12.6118,0.009 z M 88.133027,103.43503 c -0.60549,-1.13136 -6.70093,-18.00799 -6.70093,-18.55306 0,-0.41751 3.38536,-0.49348 21.989823,-0.49348 12.0944,0 22.07376,0.084 22.17636,0.18656 0.21091,0.2109 -6.33577,18.44579 -6.86733,19.12803 -0.26523,0.34042 -3.74949,0.44097 -15.28102,0.44097 -14.600713,0 -14.946003,-0.016 -15.316903,-0.70902 z m -12.78634,-28.02322 -4.8507,-5.062502 v -11.67763 -11.67763 h 3.45367 3.45366 l 2.75569,6.53638 2.75569,6.53638 4.57595,-0.0982 4.57594,-0.0982 2.69304,-6.4382 2.693045,-6.43819 6.012628,0.004 6.01264,0.004 2.67955,6.43403 2.67955,6.43404 4.5983,0.0981 4.5983,0.0981 0.5868,-1.46656 c 0.32274,-0.8066 1.55027,-3.74795 2.72783,-6.53633 l 2.14102,-5.06978 h 3.48807 3.48807 v 11.70244 11.70253 l -5.01133,5.054422 -5.01135,5.05442 -23.12268,-0.0168 -23.122693,-0.0168 z"
       id="path4645"
       inkscape:connector-curvature="0" />
  </g>
</svg>
