<?xml version="1.0" encoding="UTF-8" standalone="no"?>
<svg
   xmlns:dc="http://purl.org/dc/elements/1.1/"
   xmlns:cc="http://creativecommons.org/ns#"
   xmlns:rdf="http://www.w3.org/1999/02/22-rdf-syntax-ns#"
   xmlns:svg="http://www.w3.org/2000/svg"
   xmlns="http://www.w3.org/2000/svg"
   xmlns:sodipodi="http://sodipodi.sourceforge.net/DTD/sodipodi-0.dtd"
   xmlns:inkscape="http://www.inkscape.org/namespaces/inkscape"
   width="210mm"
   height="297mm"
   viewBox="0 0 210 297"
   version="1.1"
   id="svg8"
   sodipodi:docname="scarlet_dawn.svg"
   inkscape:version="1.0.1 (3bc2e813f5, 2020-09-07)">
  <defs
     id="defs2" />
  <sodipodi:namedview
     id="base"
     pagecolor="#ffffff"
     bordercolor="#666666"
     borderopacity="1.0"
     inkscape:pageopacity="0.0"
     inkscape:pageshadow="2"
     inkscape:zoom="0.32"
     inkscape:cx="92.204926"
     inkscape:cy="1183.1685"
     inkscape:document-units="mm"
     inkscape:current-layer="layer1"
     showgrid="false"
     inkscape:window-width="1920"
     inkscape:window-height="1001"
     inkscape:window-x="-9"
     inkscape:window-y="-9"
     inkscape:window-maximized="1"
     inkscape:document-rotation="0" />
  <metadata
     id="metadata5">
    <rdf:RDF>
      <cc:Work
         rdf:about="">
        <dc:format>image/svg+xml</dc:format>
        <dc:type
           rdf:resource="http://purl.org/dc/dcmitype/StillImage" />
        <dc:title />
      </cc:Work>
    </rdf:RDF>
  </metadata>
  <g
     inkscape:label="Layer 1"
     inkscape:groupmode="layer"
     id="layer1">
    <path
       style="fill:#e61009;stroke-width:0.352778"
       d="m 96.382495,173.55542 c -1.96714,-0.6797 -4.22921,-2.10449 -5.27906,-3.32504 l -0.64755,-0.75285 1.02787,0.64947 c 3.02307,1.91017 4.0171,2.29978 7.75469,3.03949 1.444725,0.28593 1.929465,0.5068 1.587505,0.72333 -0.76577,0.48488 -2.436195,0.35917 -4.443455,-0.3344 z m 14.345765,-0.31323 c 2.3914,-7.96766 2.77007,-10.36383 2.15969,-13.66576 -0.4746,-2.5673 -1.98324,-5.82769 -3.66958,-7.93048 -0.69518,-0.86686 -1.20308,-1.63699 -1.12866,-1.71141 0.32642,-0.32642 5.4362,2.47482 6.63099,3.6352 1.09777,1.06614 1.35554,1.18296 1.54141,0.6986 0.2212,-0.57645 -0.0494,-5.5233 -0.39502,-7.21989 -0.0988,-0.48507 0.13056,0.0339 0.50969,1.1532 1.00628,2.97091 1.53762,7.69613 1.31824,11.72318 -0.31687,5.81654 -2.06656,10.1885 -5.21636,13.03416 -1.67655,1.51466 -2.14264,1.59007 -1.7504,0.2832 z m 10.55929,-3.08131 c 6.77941,-7.16824 6.51389,-17.66477 -0.82271,-32.52292 -3.40683,-6.89956 -4.14795,-9.08663 -4.34988,-12.83655 -0.15124,-2.80861 -0.10268,-3.09037 0.69184,-4.01405 0.68703,-0.79872 1.23069,-1.02856 2.77401,-1.17275 1.91819,-0.17922 1.91907,-0.17884 1.27082,0.54868 -3.12448,3.50656 1.37488,13.89888 8.65486,19.99041 4.21941,3.53059 5.46742,6.8731 5.14937,13.79144 -0.12743,2.77194 -0.34868,3.91835 -1.05192,5.45053 -1.93179,4.20893 -5.55494,7.90825 -10.80273,11.02986 -1.54423,0.91858 -2.92825,1.67014 -3.07559,1.67014 -0.14735,0 0.55551,-0.87066 1.56193,-1.93479 z m -25.247865,-3.23776 c -2.01587,-1.37117 -3.47949,-3.29011 -5.1619,-6.76774 -1.23253,-2.54771 -1.44232,-3.332 -1.55701,-5.82083 l -0.13254,-2.87638 1.1821,2.30548 c 3.23477,6.30879 7.22613,9.91603 12.089025,10.92556 1.06219,0.22051 1.92785,0.50873 1.92372,0.6405 -0.004,0.13176 -0.66894,0.70784 -1.47732,1.28018 -2.18551,1.54733 -4.871575,1.66987 -6.866075,0.31323 z m -9.93498,-6.02511 c -1.56467,-2.43833 -3.17672,-6.13574 -4.02445,-9.23051 -0.61296,-2.23772 -0.73632,-3.72428 -0.74927,-9.02877 -0.0168,-6.88979 0.56413,-10.72493 2.40471,-15.875 l 0.88255,-2.46945 -0.24642,1.76389 c -0.7586,5.42993 0.0906,12.63773 1.99663,16.94659 0.66585,1.50525 0.67068,1.63981 0.10412,2.89929 -0.91558,2.03537 -0.79844,9.18494 0.21758,13.27989 0.42845,1.72682 0.71737,3.20129 0.64205,3.27661 -0.0753,0.0753 -0.6277,-0.62782 -1.2275,-1.56254 z m 14.047865,-5.61578 c -1.064565,-0.71016 -3.051435,-2.41759 -4.415265,-3.79428 -3.94247,-3.97965 -6.16678,-8.16387 -7.04838,-13.25895 -0.43342,-2.5049 -0.39663,-3.00285 0.69073,-9.34861 1.13032,-6.5965 1.1523,-6.66922 1.38593,-4.58611 1.10615,9.86255 3.23578,16.26869 7.69169,23.13731 2.481305,3.82483 4.168765,7.20372 4.169165,8.34811 3.6e-4,1.05604 -0.2079,1.01415 -2.47387,-0.49747 z m 7.85796,-10.91429 c -3.27361,-3.30538 -5.63443,-7.90466 -6.95386,-13.54727 -0.98918,-4.23032 -0.64718,-4.301 1.42244,-0.29395 1.54656,2.99432 2.50108,4.32747 4.67283,6.52639 3.11495,3.15392 4.09443,4.88096 4.10819,7.24367 0.0164,2.81374 -0.52172,2.82553 -3.2496,0.0712 z m -9.931635,-8.83735 c -0.60267,-2.26881 -2.09074,-9.99224 -2.53873,-13.17659 -0.65044,-4.62335 -0.56831,-14.35911 0.15463,-18.33065 1.64668,-9.046151 5.432035,-15.975951 11.294825,-20.677321 2.1709,-1.74083 6.28355,-4.00508 8.33305,-4.58782 l 0.87789,-0.24961 -0.96602,1.19701 c -3.78272,4.68721 -7.5121,11.18293 -9.06215,15.78417 -2.00565,5.953681 -2.52929,13.882991 -1.29106,19.550221 1.25385,5.7387 3.98835,12.20364 7.42091,17.54456 0.81055,1.26118 1.6085,2.51512 1.77322,2.78654 0.72498,1.19462 -3.03721,-1.43401 -5.75538,-4.02126 -3.01691,-2.87161 -5.92582,-6.4325 -8.345335,-10.2158 -1.15312,-1.8031 -1.38262,-2.00371 -1.61438,-1.41111 -0.36529,0.93402 -0.35379,10.59264 0.0168,14.09635 0.33487,3.16616 0.23714,3.72688 -0.29825,1.71131 z M 110.30084,122.354 c -0.41843,-1.4407 -0.30208,-4.2985 0.26338,-6.46948 0.29104,-1.11738 0.52917,-2.47629 0.52917,-3.0198 0,-0.96901 -1.40196,-3.24808 -2.61028,-4.24336 -1.38651,-1.14204 -1.77407,-2.54078 -1.76656,-6.37569 0.008,-4.179121 0.64344,-7.119751 2.2509,-10.419371 1.13981,-2.33969 2.71329,-4.09123 3.11466,-3.46714 0.72891,1.13337 6.02753,2.64165 11.09391,3.15794 2.44391,0.24905 2.88631,0.55566 1.71006,1.18518 -0.82045,0.43908 -2.15103,3.09387 -2.15103,4.29173 0,0.84067 -0.13268,0.89233 -3.32792,1.2959 -4.27172,0.53953 -6.90735,1.52592 -8.29246,3.103471 -1.59628,1.81807 -1.49843,3.55382 0.37549,6.66082 1.38227,2.29184 1.4458,2.52028 1.26939,4.56384 -0.10215,1.18318 -0.54781,2.94499 -0.99037,3.91513 -0.46339,1.01582 -0.89106,2.81118 -1.00842,4.23333 -0.1509,1.82866 -0.27024,2.2406 -0.45992,1.5875 z m -33.187525,-9.30198 c -0.30103,-0.45943 -0.81398,-1.65058 -1.13989,-2.64699 -0.61046,-1.86637 -0.61155,-1.66301 0.0651,-12.110831 0.15607,-2.40991 0.0773,-3.31299 -0.36636,-4.20241 -0.31084,-0.62309 -0.52478,-1.17317 -0.47543,-1.22242 0.0494,-0.0492 1.91535,-0.33184 4.14667,-0.62798 2.23132,-0.29614 4.81101,-0.77017 5.73264,-1.05339 0.92163,-0.28322 1.67569,-0.46035 1.67569,-0.39361 0,0.0667 -0.80746,1.04338 -1.79435,2.17033 -5.47387,6.25071 -8.30524,13.440341 -7.44737,18.910931 0.17351,1.10643 0.27838,2.01169 0.23306,2.01169 -0.0453,0 -0.32871,-0.3759 -0.62974,-0.83532 z m -25.2866,-1.02596 c 0,-1.67659 1.441,-5.39829 2.76708,-7.14661 3.22781,-4.25558 8.11682,-4.44803 11.94452,-0.47019 1.34908,1.402 3.20167,4.73517 2.83541,5.10144 -0.083,0.083 -0.85029,-0.11623 -1.70517,-0.44266 -1.07529,-0.41057 -2.69598,-0.60201 -5.2585,-0.62113 -3.35085,-0.025 -3.90607,0.0667 -5.82084,0.96095 -1.16416,0.54372 -2.71198,1.56812 -3.43958,2.27645 l -1.32292,1.28789 z m 94.015275,0.56023 c -10.58345,-2.41309 -17.59096,-3.53362 -24.64788,-3.94128 -4.62513,-0.26719 -5.24281,-0.38253 -6.73654,-1.25791 -1.84709,-1.08247 -3.10629,-2.83659 -2.80358,-3.90553 0.36976,-1.30569 2.12099,-2.58269 3.90964,-2.85092 4.62847,-0.694081 14.52686,1.76527 25.69225,6.38348 4.59395,1.90014 5.1765,2.0541 8.34107,2.20448 8.60193,0.40876 20.22909,-4.25011 24.01628,-9.623031 0.60964,-0.86491 1.17941,-1.50157 1.26617,-1.41482 0.0867,0.0867 -0.40346,1.33945 -1.08936,2.783771 -2.59218,5.45839 -8.73416,9.79878 -16.06441,11.35234 -2.20725,0.4678 -10.21712,0.64939 -11.88364,0.26942 z M 43.536435,110.93323 c -5.76494,-2.71448 -10.3667,-8.46745 -12.73387,-15.919501 -0.84596,-2.66316 -0.8154,-3.28443 0.0944,-1.919 0.31541,0.47337 1.73463,2.01719 3.15382,3.43072 4.3676,4.350171 8.16323,5.602871 12.48427,4.120291 1.43901,-0.49374 2.86343,-0.657181 5.51358,-0.63264 4.00826,0.0371 5.51694,0.47357 3.75733,1.08697 -1.78643,0.62276 -3.55264,2.50121 -5.5621,5.91556 -1.92608,3.27269 -3.2934,4.75813 -4.37375,4.75159 -0.31338,-0.002 -1.36354,-0.37719 -2.33368,-0.83399 z m 46.81596,-1.73062 c -0.70747,-3.78504 -1.73219,-5.48179 -3.01365,-4.99005 -0.25922,0.0995 -1.39113,1.28511 -2.51538,2.63476 -1.12424,1.34965 -2.12607,2.45391 -2.22629,2.45391 -0.37715,0 0.288,-5.21621 0.98242,-7.70419 0.97482,-3.492641 2.10716,-5.655121 4.873,-9.306201 2.70552,-3.57145 4.30458,-4.49597 8.27514,-4.78438 l 2.39118,-0.17369 -2.09344,4.01687 c -3.39094,6.50649 -5.33686,12.329481 -5.95285,17.813361 l -0.2731,2.43128 z m -19.07921,-2.89034 c -1.0765,-2.02922 -4.01121,-4.79958 -6.3279,-5.97354 -2.43178,-1.232271 -5.67013,-1.957471 -8.88523,-1.989751 l -2.64584,-0.0266 4.7625,-1.89195 c 5.19405,-2.06339 9.04441,-3.00424 12.29461,-3.00424 1.58383,0 2.14595,0.13591 2.30793,0.55802 0.41291,1.07604 0.20864,5.53476 -0.35191,7.681341 -0.35809,1.37123 -0.49998,2.91283 -0.38624,4.19606 0.0989,1.11566 0.15491,2.02847 0.12447,2.02847 -0.0304,0 -0.43202,-0.71003 -0.89239,-1.57785 z m 72.452135,-3.37108 c -3.68864,-0.40656 -8.78166,-1.58116 -12.52361,-2.88833 -3.5788,-1.250171 -3.96208,-1.540091 -2.68031,-2.027411 1.61136,-0.61264 3.97451,-0.41322 6.65569,0.56165 2.09782,0.76277 3.35895,0.95847 7.09891,1.10161 14.7353,0.563951 28.88009,-5.63523 34.14535,-14.96476 0.59385,-1.05225 1.14767,-1.84524 1.2307,-1.7622 0.35302,0.35301 -1.04512,5.09113 -2.06937,7.01281 -3.06942,5.75882 -10.43755,10.593021 -18.73729,12.293461 -3.89215,0.79742 -9.41961,1.08103 -13.12007,0.67317 z M 41.066995,97.517689 c -6.96474,-2.20844 -10.93869,-8.60032 -9.71516,-15.62632 0.40114,-2.3035 2.33513,-7.86793 2.7346,-7.86793 0.11006,0 0.10576,0.91282 -0.01,2.02848 -0.67831,6.56329 2.13879,13.47798 7.76111,19.05 2.92894,2.90274 2.93366,2.91035 1.7884,2.88682 -0.63157,-0.013 -1.7833,-0.22495 -2.55941,-0.47105 z m 83.678715,-1.03664 c -0.26387,-0.68762 0.64579,-2.54593 1.55955,-3.18596 0.55367,-0.3878 1.56822,-0.57489 3.12287,-0.57586 6.76596,-0.004 17.52491,-1.25353 22.85835,-2.65428 6.19657,-1.62743 9.28107,-3.64044 14.54579,-9.49286 1.84326,-2.04903 3.47045,-3.72571 3.61597,-3.72597 0.86138,-0.002 -0.62668,4.98266 -2.36966,7.93705 -3.45141,5.85017 -10.64553,9.75893 -20.41003,11.0893 -3.53732,0.48195 -10.17851,0.48348 -12.62633,0.003 -5.75958,-1.13073 -7.24731,-1.07626 -9.15643,0.33521 -0.71245,0.52674 -1.01426,0.59833 -1.14008,0.27045 z m -75.253435,-0.92014 c -5.03471,-1.20194 -9.40091,-5.99219 -11.39175,-12.49811 -0.81122,-2.65101 -1.7339,-10.64163 -1.27794,-11.06725 0.15623,-0.14584 0.34446,-0.0981 0.41828,0.106 0.0738,0.20414 0.72517,1.37011 1.44744,2.59104 5.97871,10.10643 17.26636,14.5038 37.55622,14.6309 8.18159,0.0513 8.1733,0.34371 -0.0263,0.92688 -7.92013,0.5633 -16.82012,2.46748 -22.28658,4.76829 -2.17922,0.91722 -2.63536,0.97293 -4.4394,0.54225 z m 87.888635,-5.60537 c 6.0168,-2.37496 12.51951,-8.65927 17.13765,-16.56209 1.30677,-2.23621 1.3776,-2.2984 1.3776,-1.20948 0,4.33683 -6.996,13.92607 -12.20766,16.73273 -2.12644,1.14516 -5.39,2.0447 -7.35743,2.02793 -1.41978,-0.0121 -1.4158,-0.0158 1.04984,-0.98909 z m 10.40136,-1.19812 c 0.097,-0.11365 1.04951,-0.80431 2.11667,-1.5348 3.4546,-2.36473 4.93526,-3.77584 8.48239,-8.0839 5.20677,-6.32373 5.60864,-6.76468 5.61923,-6.16558 0.0173,0.98068 -2.60481,4.99209 -4.85475,7.42694 -2.48086,2.68473 -6.23788,5.63259 -9.42326,7.39372 -1.16417,0.64364 -2.0373,1.07727 -1.94028,0.96362 z m 6.87917,-2.07395 c 3.76389,-2.40563 8.10685,-6.8511 9.78326,-10.01419 1.26595,-2.38864 1.3091,-2.42904 1.31873,-1.23472 0.0298,3.69747 -4.24586,8.597 -9.99014,11.44781 -1.77866,0.88273 -3.39147,1.60494 -3.584,1.60492 -0.19254,-3e-5 0.91992,-0.81175 2.47215,-1.80382 z m -55.292605,-4.61679 c 0.39103,-1.75566 0.2838,-3.67191 -0.24086,-4.30409 -0.89271,-1.07565 -7.20201,-0.56019 -13.41878,1.09629 -5.63788,1.50224 -5.29797,1.58692 -3.56229,-0.88747 1.98145,-2.82476 5.09359,-5.76424 7.26967,-6.86638 0.95968,-0.48605 3.4651,-1.38062 5.56762,-1.98793 2.10251,-0.60731 4.26176,-1.33121 4.79833,-1.60868 1.735775,-0.89761 3.136685,-2.87638 3.942455,-5.5687 1.03272,-3.45061 1.50822,-4.3105 3.62012,-6.54669 1.72566,-1.82721 4.80661,-4.23358 4.80661,-3.75419 0,0.12489 -0.29739,0.64846 -0.66087,1.16348 -2.28717,3.24072 -3.92524,7.93235 -3.92524,11.24232 0,4.00213 1.64161,6.45103 4.32442,6.45103 3.09536,0 7.34239,-3.17522 8.96984,-6.70614 0.35226,-0.76425 0.75233,-1.39365 0.88906,-1.39865 0.2341,-0.009 0.49851,1.16286 0.7146,3.1659 0.077,0.71345 0.33103,0.91601 1.32986,1.06029 l 1.23472,0.17834 -2.64583,1.42764 c -1.96751,1.06164 -2.82606,1.7595 -3.34882,2.72205 -0.67383,1.24073 -0.67696,1.32042 -0.0755,1.92179 0.85645,0.85631 4.39604,0.76188 6.86388,-0.18312 1.01865,-0.39006 1.85209,-0.66163 1.85209,-0.60349 0,0.0581 -0.79405,0.61526 -1.76455,1.23803 -2.45779,1.57716 -5.23625,2.35868 -9.94265,2.79665 -5.837,0.54319 -10.21846,2.19209 -14.51409,5.46217 -2.357075,1.79434 -2.375395,1.79865 -2.083815,0.48955 z m -8.77765,-7.70323 c 1.9331,-0.59996 2.88216,-0.67034 6.70277,-0.49705 4.275235,0.19391 5.239325,-0.1265 2.08469,-0.69281 -0.71929,-0.12913 -2.04687,-0.5617 -2.95018,-0.96128 -2.06642,-0.91407 -4.03287,-0.69694 -7.1043,0.78447 -1.93086,0.93128 -4.68911,3.42823 -4.68911,4.24488 0,0.14795 0.83343,-0.28186 1.85208,-0.95514 1.01865,-0.67328 2.86547,-1.53866 4.10405,-1.92307 z m 13.734065,-4.39482 0.11104,-1.76177 -0.82718,1.22746 c -0.45495,0.6751 -1.18242,1.40456 -1.61659,1.62102 -1.42697,0.71142 -1.31653,0.89826 0.46455,0.7859 l 1.75714,-0.11085 z"
       id="path4668"
       inkscape:connector-curvature="0" />
  </g>
</svg>
