<?xml version="1.0" encoding="UTF-8" standalone="no"?>
<svg
   xmlns:dc="http://purl.org/dc/elements/1.1/"
   xmlns:cc="http://creativecommons.org/ns#"
   xmlns:rdf="http://www.w3.org/1999/02/22-rdf-syntax-ns#"
   xmlns:svg="http://www.w3.org/2000/svg"
   xmlns="http://www.w3.org/2000/svg"
   xmlns:sodipodi="http://sodipodi.sourceforge.net/DTD/sodipodi-0.dtd"
   xmlns:inkscape="http://www.inkscape.org/namespaces/inkscape"
   width="210mm"
   height="297mm"
   viewBox="0 0 210 297"
   version="1.1"
   id="svg8"
   sodipodi:docname="twin_guard.svg"
   inkscape:version="1.0.1 (3bc2e813f5, 2020-09-07)">
  <defs
     id="defs2" />
  <sodipodi:namedview
     id="base"
     pagecolor="#ffffff"
     bordercolor="#666666"
     borderopacity="1.0"
     inkscape:pageopacity="0.0"
     inkscape:pageshadow="2"
     inkscape:zoom="0.32"
     inkscape:cx="577.27661"
     inkscape:cy="1126.9185"
     inkscape:document-units="mm"
     inkscape:current-layer="layer1"
     showgrid="false"
     inkscape:window-width="1920"
     inkscape:window-height="1001"
     inkscape:window-x="-9"
     inkscape:window-y="-9"
     inkscape:window-maximized="1"
     inkscape:document-rotation="0" />
  <metadata
     id="metadata5">
    <rdf:RDF>
      <cc:Work
         rdf:about="">
        <dc:format>image/svg+xml</dc:format>
        <dc:type
           rdf:resource="http://purl.org/dc/dcmitype/StillImage" />
        <dc:title />
      </cc:Work>
    </rdf:RDF>
  </metadata>
  <g
     inkscape:label="Layer 1"
     inkscape:groupmode="layer"
     id="layer1">
    <path
       style="fill:#f5cf03;stroke-width:0.352778"
       d="m 78.941006,162.46228 -22.75417,-13.17768 -0.0962,-6.36761 c -0.0529,-3.50219 0.0407,-6.36761 0.20798,-6.36761 0.16727,0 10.48817,5.87673 22.93533,13.05939 l 22.631214,13.05939 22.61539,-13.05939 c 12.43847,-7.18266 22.75865,-13.05939 22.93374,-13.05939 0.17739,0 0.31833,2.79414 0.31833,6.311 v 6.311 l -22.81843,13.17997 c -12.55014,7.24899 -22.90858,13.20442 -23.01875,13.23429 -0.11018,0.0299 -10.439698,-5.87563 -22.954484,-13.12336 z m -0.2668,-17.53688 -22.66818,-13.11993 0.0904,-26.415 0.0904,-26.415 22.8295,-13.18251 22.829494,-13.1825 22.85523,13.18935 22.85522,13.18936 0.0904,26.40509 0.0904,26.40509 -22.60474,13.04654 c -12.43261,7.1756 -22.87142,13.08095 -23.19735,13.12299 -0.32594,0.0421 -10.793288,-5.82751 -23.260794,-13.04348 z m 19.316796,-5.73019 v -7.23194 h 3.880558 3.88055 v 7.26969 c 0,5.67727 0.0966,7.22996 0.44097,7.08835 0.24254,-0.0997 7.82285,-4.44817 16.84514,-9.66318 l 16.40417,-9.48185 0.0909,-21.53829 c 0.0851,-20.17872 0.0517,-21.57146 -0.52917,-22.06387 -0.69946,-0.5929 -31.67682,-18.46915 -32.63463,-18.83262 -0.57667,-0.21883 -0.61736,0.29143 -0.61736,7.74097 v 7.97524 h -3.87406 -3.874048 l -0.0947,-8.06981 -0.0947,-8.0698 -16.84514,9.71498 -16.845136,9.71499 v 21.65005 21.65005 l 1.31152,0.78186 c 5.35884,3.19464 32.080106,18.57322 32.290566,18.58381 0.14552,0.007 0.26458,-3.24106 0.26458,-7.21863 z m -19.843746,-9.41151 -9.08403,-5.29121 0.01,-19.10697 0.01,-19.10698 9.21171,-5.29166 c 5.066433,-2.91042 9.348306,-5.34459 9.515276,-5.40926 0.16696,-0.0647 0.30357,1.38119 0.30357,3.21304 v 3.33062 l -6.702781,3.84252 -6.702785,3.84252 0.0882,15.6489 0.0882,15.64889 6.52639,3.77433 6.526386,3.77433 0.10144,3.24275 c 0.0774,2.47431 -0.006,3.23524 -0.35278,3.21107 -0.24982,-0.0174 -4.542026,-2.41273 -9.538236,-5.32289 z m 37.557014,2.13956 0.10201,-3.30109 6.61458,-3.83154 6.61458,-3.83154 V 105.49492 90.03076 l -0.97014,-0.66835 c -0.53357,-0.36758 -3.54982,-2.1432 -6.70277,-3.94581 l -5.73264,-3.27748 v -3.33955 c 0,-1.83675 0.1331,-3.28663 0.29579,-3.22195 0.16269,0.0647 4.44342,2.49884 9.51276,5.40926 l 9.21696,5.29166 0.0122,19.10455 0.0122,19.10454 -8.90764,5.12719 c -4.8992,2.81995 -9.19166,5.23571 -9.5388,5.36836 -0.5828,0.22269 -0.62336,-0.0118 -0.52917,-3.05992 z m -17.787728,-6.57458 -0.10193,-3.0868 -3.0986,-0.1021 -3.0986,-0.1021 0.1,-3.77846 0.1,-3.77845 3.08681,-0.10193 3.0868,-0.10193 v -2.98488 -2.98487 h 3.880558 3.88055 v 2.98487 2.98488 l 3.08681,0.10193 3.08681,0.10193 0.1,3.77845 0.1,3.77846 -3.0986,0.1021 -3.0986,0.1021 -0.10193,3.0868 -0.10193,3.08681 h -3.85309 -3.853078 z m -1.33658,-27.78117 -5.10622,-5.11535 h 3.25863 3.25863 v -4.05695 -4.05694 h 3.880558 3.88055 v 4.04321 4.0432 l 3.00488,0.10194 3.00488,0.10192 -5.03784,5.02716 -5.03784,5.02716 z"
       id="path4649"
       inkscape:connector-curvature="0" />
  </g>
</svg>
